<svg xmlns="http://www.w3.org/2000/svg" fill="none" viewBox="0 0 20 20">
  <path fill="#fff" stroke="#fff" stroke-width=".1" d="M17.55 3.065a.55.55 0 0 0-1.101.002v14.867a.449.449 0 0 1-.45.445H5.002a1.445 1.445 0 0 1-1.449-1.437c0-.792.65-1.437 1.449-1.437h8.997c.853 0 1.548-.689 1.548-1.537V2.073c0-.848-.695-1.537-1.548-1.537H4.003c-.854 0-1.55.689-1.55 1.537V16.94c0 1.395 1.146 2.527 2.55 2.527h10.998c.853 0 1.549-.689 1.549-1.537V3.065Zm-13.997-.99v-.041a.45.45 0 0 1 .448-.405h9.998c.249 0 .45.201.45.446v11.893a.448.448 0 0 1-.45.445H5.002a2.55 2.55 0 0 0-1.449.449V2.075Zm1.449 14.321a.548.548 0 0 0-.55.546.55.55 0 0 0 .55.546H15c.304 0 .55-.245.55-.546a.55.55 0 0 0-.55-.546H5.002Z"/>
  <path fill="#fff" d="M10.773 4.78a2.55 2.55 0 0 0-1.688-.616 2.56 2.56 0 0 0-1.687.615c-.472.413-.732.968-.732 1.562v.115a.12.12 0 0 0 .121.121h.726a.121.121 0 0 0 .12-.12V6.34c0-.666.652-1.21 1.452-1.21.8 0 1.452.544 1.452 1.21 0 .47-.333.902-.848 1.1A1.69 1.69 0 0 0 8.6 9.04v.325c0 .066.054.12.121.12h.726a.121.121 0 0 0 .12-.12v-.344a.73.73 0 0 1 .468-.677c.892-.343 1.468-1.13 1.468-2.004.002-.594-.258-1.149-.73-1.562ZM8.48 11.06a.605.605 0 1 0 1.21 0 .605.605 0 0 0-1.21 0Z"/>
</svg>