<svg xmlns="http://www.w3.org/2000/svg" fill="none" viewBox="0 0 140 35">
  <g clip-path="url(#a)">
    <path fill="#F05537" d="M130.003 17.133a4.611 4.611 0 0 1 4.763 1.789l-8.244 1.865a4.509 4.509 0 0 1 3.481-3.654Zm4.81 6.862a4.55 4.55 0 0 1-2.757 1.855 4.608 4.608 0 0 1-4.783-1.818l8.269-1.871 1.347-.305 2.577-.582a8.192 8.192 0 0 0-.215-1.643c-1.049-4.45-5.579-7.224-10.119-6.197-4.54 1.027-7.371 5.468-6.323 9.917 1.048 4.45 5.578 7.225 10.119 6.198a8.385 8.385 0 0 0 5.8-4.675l-3.915-.879Zm-19.461 5.33v-11.8h-2.547v-4.019h2.547V7.975h4.324v5.532h3.248v4.02h-3.248v11.797h-4.324Zm-8.261 0h4.176V13.506h-4.176v15.817Zm-.543-21.367c0-1.464 1.155-2.562 2.649-2.562 1.493 0 2.614 1.098 2.614 2.562 0 1.465-1.121 2.596-2.614 2.596-1.494 0-2.649-1.131-2.649-2.596Zm-.91 5.594c-2.135.11-3.394.438-4.675 1.366v-1.41H96.79v15.816h4.173v-7.756c0-2.44.595-3.829 4.675-3.965V13.55Zm-23.27 8.112c.105 2.308 2.114 4.244 4.573 4.244 2.494 0 4.538-2.037 4.538-4.447 0-2.377-2.044-4.414-4.538-4.414-2.459 0-4.469 1.97-4.572 4.244v.373Zm-4.071 7.66V5.96l4.175-.944v9.668c1.29-1.031 2.82-1.464 4.483-1.464 4.753 0 8.555 3.66 8.555 8.253 0 4.559-3.801 8.286-8.556 8.286-1.663 0-3.191-.432-4.481-1.464v1.03h-4.176Zm-8.889 0V17.445h-2.546v-3.938h2.546V7.971l4.324-.979v6.515h3.248v3.938h-3.248v11.88h-4.324Zm-7.652 0v-8.45c0-3.062-1.664-3.728-3.328-3.728s-3.327.633-3.327 3.661v8.517h-4.176V13.507h4.176v1.177c.916-.666 2.037-1.465 4.244-1.465 3.53 0 6.587 2.03 6.587 6.989v9.116h-4.176ZM40.35 17.132a4.609 4.609 0 0 1 4.763 1.79l-8.244 1.865c.284-1.745 1.616-3.233 3.48-3.654Zm4.81 6.863a4.55 4.55 0 0 1-2.757 1.855 4.61 4.61 0 0 1-4.783-1.818l8.27-1.871 1.347-.305 2.575-.582a8.148 8.148 0 0 0-.214-1.643c-1.049-4.45-5.58-7.224-10.12-6.197-4.54 1.027-7.37 5.468-6.322 9.917 1.049 4.45 5.578 7.225 10.119 6.198a8.384 8.384 0 0 0 5.8-4.675l-3.916-.879Zm-21.841 5.33-6.485-15.818h4.55l4.108 10.727 4.142-10.727h4.55l-6.485 15.817h-4.38ZM8.646 17.127a4.612 4.612 0 0 1 4.764 1.79l-8.245 1.865c.284-1.745 1.616-3.232 3.481-3.655Zm4.81 6.863a4.55 4.55 0 0 1-2.757 1.856 4.61 4.61 0 0 1-4.783-1.819l8.27-1.87 1.347-.305 2.575-.583a8.164 8.164 0 0 0-.214-1.642c-1.049-4.45-5.578-7.225-10.12-6.198-4.54 1.027-7.369 5.468-6.322 9.919 1.049 4.45 5.579 7.224 10.12 6.197a8.385 8.385 0 0 0 5.8-4.675l-3.917-.88Z"/>
  </g>
  <defs>
    <clipPath id="a">
      <path fill="#fff" d="M1 5h138.502v24.93H1z"/>
    </clipPath>
  </defs>
</svg>