<svg xmlns="http://www.w3.org/2000/svg" fill="none" viewBox="0 0 120 30">
  <g clip-path="url(#a)">
    <path fill="#EA4335" d="M53.588 15.796c0 3.926-3.072 6.82-6.84 6.82-3.77 0-6.842-2.894-6.842-6.82 0-3.954 3.072-6.82 6.841-6.82 3.77 0 6.84 2.866 6.84 6.82Zm-2.995 0c0-2.454-1.78-4.132-3.846-4.132s-3.846 1.678-3.846 4.132c0 2.429 1.78 4.132 3.846 4.132s3.846-1.706 3.846-4.132Z"/>
    <path fill="#FBBC05" d="M68.346 15.796c0 3.926-3.072 6.82-6.841 6.82-3.77 0-6.84-2.894-6.84-6.82 0-3.95 3.07-6.82 6.84-6.82s6.84 2.866 6.84 6.82Zm-2.995 0c0-2.454-1.78-4.132-3.846-4.132s-3.846 1.678-3.846 4.132c0 2.429 1.78 4.132 3.846 4.132s3.846-1.706 3.846-4.132Z"/>
    <path fill="#4285F4" d="M82.489 9.389V21.63c0 5.036-2.97 7.093-6.481 7.093-3.305 0-5.294-2.21-6.045-4.018l2.608-1.085c.464 1.11 1.601 2.42 3.434 2.42 2.247 0 3.64-1.387 3.64-3.998v-.98h-.105c-.67.827-1.961 1.55-3.59 1.55-3.41 0-6.534-2.97-6.534-6.793 0-3.849 3.124-6.843 6.533-6.843 1.627 0 2.918.722 3.591 1.524h.105V9.39h2.844Zm-2.632 6.431c0-2.4-1.602-4.156-3.64-4.156-2.066 0-3.797 1.755-3.797 4.156 0 2.377 1.73 4.108 3.797 4.108 2.038 0 3.64-1.73 3.64-4.108Z"/>
    <path fill="#34A853" d="M87.177 2.21v19.985h-2.921V2.211h2.92Z"/>
    <path fill="#EA4335" d="m98.558 18.036 2.324 1.55c-.75 1.109-2.558 3.021-5.681 3.021-3.874 0-6.767-2.994-6.767-6.819 0-4.055 2.917-6.82 6.431-6.82 3.54 0 5.27 2.817 5.836 4.339l.311.775-9.117 3.775c.698 1.368 1.784 2.066 3.306 2.066 1.525 0 2.582-.75 3.357-1.887Zm-7.154-2.454 6.093-2.53c-.335-.852-1.343-1.445-2.53-1.445-1.522 0-3.64 1.343-3.563 3.975Z"/>
    <path fill="#4285F4" d="M28.85 14.017v-2.893h9.75c.095.504.145 1.1.145 1.746 0 2.17-.594 4.855-2.506 6.767-1.86 1.937-4.237 2.97-7.385 2.97-5.836 0-10.743-4.753-10.743-10.589 0-5.835 4.907-10.588 10.743-10.588 3.228 0 5.528 1.266 7.256 2.917L34.068 6.39c-1.239-1.162-2.918-2.066-5.217-2.066-4.262 0-7.594 3.434-7.594 7.695 0 4.262 3.332 7.696 7.594 7.696 2.764 0 4.338-1.11 5.346-2.118.818-.818 1.356-1.987 1.568-3.582l-6.914.003Z"/>
  </g>
  <defs>
    <clipPath id="a">
      <path fill="#fff" d="M18 1.29h83.627v28.285H18z"/>
    </clipPath>
  </defs>
</svg>