<svg xmlns="http://www.w3.org/2000/svg" fill="none" viewBox="0 0 140 35">
  <g clip-path="url(#a)">
    <path fill="#33475B" d="M25.374 6.367v9.135h-8.392V6.367H13v21.806h3.983v-8.838h8.39v8.838h3.983V6.367h-3.982Zm16.73 14.758a3.296 3.296 0 0 1-6.59 0v-9.34h-3.779v9.34a7.066 7.066 0 0 0 14.133 0v-9.34h-3.764v9.34Zm27.993-8.378c0-1.915 1.267-2.522 2.654-2.522 1.119 0 2.595.851 3.562 1.884l2.474-2.917c-1.235-1.67-3.74-2.825-5.791-2.825-4.1 0-7.064 2.4-7.064 6.38 0 7.383 9.024 5.04 9.024 9.172 0 1.275-1.237 2.4-2.654 2.4-2.234 0-2.958-1.092-3.984-2.247l-2.747 2.855c1.757 2.155 3.924 3.25 6.518 3.25 3.894 0 7.027-2.429 7.027-6.227 0-8.196-9.025-5.65-9.025-9.203m55.833 11.943c-2.233 0-2.868-.966-2.868-2.445v-6.548h3.471V12.38h-3.471V8.002l-3.83 1.72v13.337c0 3.411 2.354 5.13 5.581 5.13a7.887 7.887 0 0 0 1.511-.12l.935-3.44c-.422.028-.906.057-1.329.057m-69.44-12.793c-1.87 0-3.177.544-4.44 1.782V6.498h-3.783v13.304c0 4.98 3.6 8.392 7.646 8.392 4.488 0 8.437-3.473 8.437-8.149 0-4.617-3.634-8.148-7.86-8.148m-.023 12.489a4.294 4.294 0 1 1 0-8.588 4.294 4.294 0 0 1 0 8.588Zm41.112-4.54c0-4.684-3.94-8.148-8.437-8.148-4.045 0-7.646 3.412-7.646 8.392v13.312h3.783v-7.187c1.261 1.236 2.57 1.782 4.439 1.782 4.225 0 7.86-3.532 7.86-8.15ZM93.99 19.8a4.294 4.294 0 1 1-8.588 0 4.294 4.294 0 0 1 8.588 0Z"/>
    <path fill="#FF7A59" d="M109.796 11.511V7.71a2.923 2.923 0 0 0 1.688-2.639v-.087a2.928 2.928 0 0 0-2.928-2.928h-.087a2.928 2.928 0 0 0-2.927 2.928v.087a2.92 2.92 0 0 0 1.688 2.639v3.801a8.29 8.29 0 0 0-3.942 1.736L92.862 5.126c.074-.268.113-.544.117-.821a3.298 3.298 0 1 0-3.302 3.291 3.263 3.263 0 0 0 1.624-.441l10.267 7.989a8.308 8.308 0 0 0 .127 9.366l-3.123 3.124a2.683 2.683 0 0 0-.78-.127 2.708 2.708 0 1 0 2.711 2.71 2.72 2.72 0 0 0-.127-.78l3.089-3.09a8.324 8.324 0 0 0 7.187 1.458 8.331 8.331 0 0 0-.856-16.294Zm-1.281 12.503a4.274 4.274 0 1 1 0-8.544 4.276 4.276 0 0 1 4.125 4.27 4.278 4.278 0 0 1-4.12 4.272"/>
  </g>
  <defs>
    <clipPath id="a">
      <path fill="#fff" d="M13 1h114.253v33.413H13z"/>
    </clipPath>
  </defs>
</svg>