<svg xmlns="http://www.w3.org/2000/svg" fill="none" viewBox="0 0 140 35">
  <path fill="#0073B0" fill-rule="evenodd" d="M13.703 27.781h12.415v-4.075h-7.922V8.155h-4.493V27.78Zm18.704 0V14.264h-4.493V27.78h4.493Zm-2.246-15.363c1.566 0 2.542-1.038 2.542-2.336-.03-1.326-.976-2.335-2.513-2.335s-2.542 1.009-2.542 2.335c0 1.298.976 2.336 2.483 2.336h.03Zm4.331 15.363h4.493v-7.549c0-.404.03-.807.148-1.096.325-.807 1.064-1.643 2.305-1.643 1.627 0 2.277 1.24 2.277 3.056v7.232h4.493v-7.75c0-4.153-2.217-6.085-5.173-6.085-2.424 0-3.488 1.355-4.08 2.278h.03v-1.96h-4.493c.06 1.268 0 13.517 0 13.517ZM54.548 8.155h-4.493v19.626h4.493V23.4l1.123-1.414 3.518 5.796h5.527l-5.912-8.39 5.173-5.71h-5.409s-3.695 5.108-4.02 5.714V8.155Z" clip-rule="evenodd"/>
  <path fill="#0073B0" fill-rule="evenodd" d="M76.73 22.144c.06-.347.148-1.013.148-1.766 0-3.495-1.774-7.042-6.444-7.042-4.996 0-7.301 3.95-7.301 7.534 0 4.432 2.808 7.2 7.715 7.2 1.95 0 3.754-.288 5.232-.893l-.592-2.968c-1.212.402-2.453.603-3.99.603-2.099 0-3.931-.861-4.08-2.697l9.312.028Zm-9.34-3.04c.118-1.154.886-2.855 2.808-2.855 2.039 0 2.512 1.817 2.512 2.855h-5.32ZM87.963 8.15v6.795h-.059c-.65-.951-2.01-1.586-3.813-1.586-3.459 0-6.503 2.768-6.474 7.497 0 4.383 2.75 7.238 6.178 7.238 1.862 0 3.636-.808 4.523-2.365h.089l.177 2.047h3.99a74.877 74.877 0 0 1-.118-4.21V8.152h-4.493Zm0 13.37c0 .345-.03.692-.089.98-.265 1.24-1.33 2.104-2.63 2.104-1.862 0-3.074-1.499-3.074-3.863 0-2.22 1.034-4.008 3.103-4.008 1.39 0 2.365.951 2.631 2.133.06.26.06.549.06.808v1.846Z" clip-rule="evenodd"/>
  <path fill="#0073B1" fill-rule="evenodd" d="M99.175 2.704c-1.214 0-2.198.96-2.198 2.145v25.647c0 1.185.984 2.145 2.198 2.145h25.351c1.214 0 2.198-.96 2.198-2.145V4.85c0-1.184-.984-2.145-2.198-2.145H99.175Zm6.818 25.06V14.248H101.5v13.518h4.493Zm-2.246-15.363c1.566 0 2.542-1.038 2.542-2.335-.03-1.327-.976-2.336-2.513-2.336s-2.542 1.01-2.542 2.336c0 1.297.975 2.335 2.483 2.335h.03Zm4.737 15.364h4.493v-7.55c0-.403.03-.807.148-1.096.325-.807 1.064-1.643 2.306-1.643 1.626 0 2.276 1.24 2.276 3.057v7.232h4.493v-7.751c0-4.152-2.217-6.085-5.173-6.085-2.384 0-3.452 1.31-4.049 2.231v.047h-.03l.03-.047v-1.913h-4.494c.059 1.268 0 13.518 0 13.518Z" clip-rule="evenodd"/>
</svg>