<svg xmlns="http://www.w3.org/2000/svg" fill="none" viewBox="0 0 140 40">
  <path fill="#fff" fill-rule="evenodd" d="M18.7764 6.7706c1.2185-.5482 2.0688-1.7907 2.0688-3.2356 0-1.9523-1.5524-3.535-3.4675-3.535-1.9151 0-3.4675 1.5827-3.4675 3.535 0 1.4682.878 2.7274 2.1279 3.2615-1.8942.9583-3.2686 3.7543-3.2686 6.4792 0 1.1081-.2401 2.2576-.9931 3.0569l-.5692.6041a3.4928 3.4928 0 0 1-.8304.65c-1.067.6002-2.3256.4044-3.5659.2114a71.9834 71.9834 0 0 0-.3336-.0514c1.4165-.4445 2.446-1.7892 2.446-3.3791 0-1.9523-1.5524-3.5349-3.4675-3.5349-1.915 0-3.4675 1.5826-3.4675 3.5349 0 1.631 1.0834 3.0039 2.5565 3.4118-2.143.6874-3.7596 3.7264-3.7596 6.6815 0 3.3586 2.088 5.1646 4.6639 5.1646.1715 0 .3457-.0013.5208-.0025 1.625-.0118 3.3714-.0244 4.6385.9581l.5826.4517c1.1454 1.0253 1.9932 2.4417 2.8347 3.8476 1.2132 2.027 2.4134 4.0321 4.4739 4.8117.5394.2041 1.1289.3079 1.7464.3079 2.5758 0 4.6639-1.806 4.6639-5.1646 0-2.7437-1.3935-5.5597-3.3081-6.4988 1.4648-.4134 2.5402-1.7822 2.5402-3.4072 0-1.9523-1.5524-3.5349-3.4675-3.5349-1.9151 0-3.4676 1.5826-3.4676 3.5349 0 1.4121.8122 2.6308 1.9862 3.1971-.6586.1181-1.324.3043-1.9868.4898-1.7398.4868-3.4624.9688-5.0014.2015l-.041-.0196c-1.4911-.7128-2.0508-2.6583-2.0508-4.3373 0-2.1603.6271-4.5392 2.4926-5.5641l.0783-.043c1.1824-.6497 2.6057-.5498 3.964-.4545.1486.0104.2967.0208.4434.0301.113.0072.227.0108.3421.0108 2.5758 0 4.6639-1.806 4.6639-5.1645 0-2.7499-1.3998-5.5724-3.321-6.5051Zm65.115 9.1235c0 2.4116 1.8949 3.5792 4.1534 4.0194l1.7609.3254c1.4737.2679 2.5647.7081 2.5647 1.8948 0 1.4929-1.5503 1.9332-2.7753 1.9332-1.646 0-3.0624-.6125-3.3686-2.6414h-2.6413c.2488 2.9859 2.5073 4.8233 5.9142 4.8233 2.7945 0 5.6272-1.3972 5.6272-4.2491 0-2.871-2.4882-3.7705-4.7467-4.1725l-1.8183-.3254c-1.1102-.2105-1.9332-.7464-1.9332-1.7226 0-1.2441 1.4164-1.7226 2.6796-1.7226 1.3015 0 2.7179.536 2.9284 2.1629h2.6414c-.134-2.6605-2.5839-4.3448-5.4549-4.3448-2.5648 0-5.5315 1.2249-5.5315 4.0194Zm12.582-.1914v13.6468h2.6413v-4.651c.6508 1.1292 1.8753 1.5503 2.9473 1.5503 2.45 0 4.498-2.1054 4.498-5.3975 0-3.2346-1.99-5.3783-4.479-5.3783-1.301 0-2.4112.5933-2.9663 1.5503v-1.3206h-2.6413Zm4.9576 1.7991c1.359 0 2.354 1.359 2.354 3.3687s-.995 3.3495-2.354 3.3495c-1.455 0-2.412-1.2633-2.412-3.3687 0-2.0671.957-3.3495 2.412-3.3495Zm9.748 8.747c-1.971 0-3.713-1.1484-3.713-3.0241 0-2.4308 2.737-3.1581 6.776-3.6175v-.1722c0-1.5886-.862-2.1437-1.934-2.1437-1.014 0-1.856.5359-1.914 1.6652h-2.469c.192-2.0289 1.876-3.5218 4.517-3.5218 2.45 0 4.441 1.0527 4.441 4.5362 0 .1206-.005.3832-.012.7138-.011.5611-.026 1.3185-.026 1.9084 0 1.6269.114 2.5456.306 3.4069h-2.431c-.076-.3254-.134-.7847-.172-1.2824-.727 1.0719-1.818 1.5312-3.369 1.5312Zm3.139-4.9572c-2.947.3062-4.134.6507-4.134 1.7991 0 .7465.593 1.359 1.78 1.359 1.646 0 2.354-.8996 2.354-2.3925v-.7656Zm11.12-2.0672h2.526c-.344-2.5647-2.526-3.7514-4.67-3.7514-3.081 0-5.168 2.2585-5.168 5.3975 0 3.1007 1.972 5.3783 5.053 5.3783 2.125 0 4.268-.9378 4.881-3.7514h-2.527c-.344 1.2441-1.32 1.7034-2.22 1.7034-1.454 0-2.488-1.2058-2.488-3.3686 0-2.1437 1.091-3.3112 2.469-3.3112.995 0 1.952.7273 2.144 1.7034Zm5.958 2.3543c.134 1.7608 1.359 2.6221 2.603 2.6221.804 0 1.627-.2871 2.163-1.1866h2.718c-.555 1.5312-2.068 3.2346-4.862 3.2346-3.311 0-5.244-2.469-5.244-5.4357 0-3.0624 2.124-5.3401 5.167-5.3401 3.178 0 5.168 2.4691 5.053 6.1057h-7.598Zm.038-1.8183h4.881c-.058-1.7418-1.283-2.3543-2.393-2.3543-.995 0-2.277.6317-2.488 2.3543ZM42.6355 12.123H32.5293V26h10.1062v-2.2203h-7.3691V20.009h6.9672v-2.2203h-6.9672v-3.4453h7.3691V12.123Zm36.5725.7848h-2.6414v2.7945h-1.4547v1.8184h1.4547v5.7039c0 2.0481.4593 2.7754 2.8136 2.7754h1.9332v-1.8949h-.8039c-.9379 0-1.3015-.2106-1.3015-1.2633v-5.3211h2.1437v-1.8184H79.208v-2.7945Zm-20.5302 11.293c-1.2441 0-2.4691-.8613-2.6031-2.6223h7.5989c.1148-3.6367-1.8758-6.1058-5.0532-6.1058-3.0433 0-5.1679 2.2777-5.1679 5.3402 0 2.9668 1.9332 5.4359 5.2445 5.4359 2.7945 0 4.3066-1.7035 4.8617-3.2347h-2.718c-.5359.8996-1.3589 1.1867-2.1629 1.1867Zm2.3161-4.4406H56.113c.2106-1.7227 1.493-2.3543 2.4883-2.3543 1.1101 0 2.3351.6125 2.3926 2.3543ZM50.784 15.7023l-2.4117 7.618-2.4118-7.618h-2.7753L46.9367 26h2.7754l3.6941-10.2977H50.784Zm16.9453 1.359c.5933-1.0336 1.7226-1.5886 2.9859-1.5886 2.4691 0 3.5602 1.5121 3.5602 4.0386V26H71.634v-5.9145c0-1.3398-.2872-2.4882-1.7801-2.4882-1.7418 0-2.1246 1.4164-2.1246 3.0433V26h-2.6414V15.7023h2.6414v1.359Z" clip-rule="evenodd"/>
</svg>