<svg xmlns="http://www.w3.org/2000/svg" fill="none" viewBox="0 0 140 35">
  <path fill="#222" d="M32.394 16.571h.674c.143-.306.143-.756 0-1.267-.143-.756-.368-1.267-.818-1.205-.45.082-.45.674-.306 1.43.061.45.225.817.45 1.042Zm-3.963.671c.307.143.531.225.593.143.082-.082 0-.143-.082-.306-.143-.307-.531-.532-.817-.675-.756-.306-1.574-.224-2.248.307-.225.143-.45.368-.368.531 0 .082.082.082.143.082.143 0 .818-.307 1.574-.368.45-.02.899.143 1.205.286Zm-.671.37c-.449.082-.674.225-.817.368-.143.143-.224.224-.224.306v.082h.081c.082 0 .307-.082.307-.082.593-.225.98-.225 1.349-.143.224 0 .306.082.367 0V18c-.02-.225-.47-.45-1.062-.388Z"/>
  <path fill="#222" d="M27.97 18.142c.143-.306.143-.98 0-1.491-.143-.756-.368-1.206-.9-1.206-.449.082-.449.675-.306 1.492.082.531.307.817.368 1.042.388.613.613.45.838.163Zm3.07.815c.306.143.593.081.756-.143.082-.225-.082-.532-.368-.675-.306-.143-.592-.081-.756.143-.163.225.061.532.368.675Zm1.863-1.637c-.225 0-.45.225-.45.593 0 .306.143.592.45.592.224 0 .45-.224.45-.592-.062-.307-.226-.593-.45-.593Zm-15.839 5.827c-.081-.082-.143-.082-.224 0h-.225c-.143 0-.307-.082-.368-.225-.061-.143-.082-.368 0-.675l.082-.142c.225-.45.531-1.124.143-1.799-.307-.53-.674-.817-1.206-.899a1.445 1.445 0 0 0-1.348.532c-.531.592-.593 1.348-.531 1.634 0 .082.081.143.143.143.081 0 .224-.082.306-.306v-.082c0-.143.082-.306.225-.531.143-.225.368-.368.592-.368.225-.082.532 0 .756.143.368.225.532.674.368 1.124-.225.225-.306.592-.306.98.081.675.53.981.899 1.043.367 0 .674-.225.674-.368.082-.123.02-.123.02-.204Z"/>
  <path fill="#222" d="M38.807 21.88c0-.082-.082-.368-.225-.818l-.306-.674c.531-.756.531-1.492.45-1.86-.082-.449-.307-.899-.675-1.348-.368-.45-1.267-.9-2.39-1.206l-.593-.143s0-1.43-.082-2.023a6 6 0 0 0-.306-1.798c-.225-.899-.675-1.716-1.267-2.247 1.492-1.574 2.472-3.372 2.472-4.863 0-2.84-3.514-3.74-7.928-1.942l-.899.368s-1.634-1.634-1.716-1.634C20.499-2.64 5.032 14.626 9.956 18.814l1.042.9c-.307.756-.368 1.573-.307 2.472.143 1.124.756 2.248 1.635 3.147.899.817 2.084 1.348 3.29 1.348 1.94 4.495 6.354 7.172 11.503 7.336 5.538.143 10.237-2.473 12.179-7.111.143-.306.674-1.798.674-3.147.122-1.369-.634-1.88-1.165-1.88Zm-22.721 3.514c-.143 0-.368.082-.532 0-1.634-.082-3.514-1.573-3.657-3.371-.143-1.942.817-3.433 2.615-3.821.225-.082.45-.082.756-.082.981.082 2.473.817 2.84 2.983.287 2.043-.143 3.984-2.022 4.291Zm-1.86-8.378c-1.124.225-2.084.818-2.697 1.717-.368-.307-1.042-.9-1.124-1.124-.98-1.798 1.042-5.374 2.473-7.336 3.432-4.924 8.888-8.663 11.36-8.01.45.144 1.799 1.717 1.799 1.717s-2.534 1.43-4.863 3.372c-3.147 2.329-5.538 5.843-6.948 9.664Zm17.634 7.622.082-.082c0-.082-.082-.082-.082-.082s-2.616.368-5.088-.53c.307-.9.98-.593 2.084-.45 1.941.143 3.74-.143 5.006-.532 1.124-.306 2.616-.98 3.74-1.859.367.817.53 1.798.53 1.798s.307-.082.532.082c.225.143.368.45.307 1.205-.225 1.492-.9 2.616-1.86 3.74-.592.674-1.43 1.267-2.309 1.716-.45.225-.98.45-1.491.593-4.046 1.267-8.071-.082-9.338-3.147-.082-.225-.225-.45-.225-.756-.531-2.023-.082-4.414 1.43-5.905a.545.545 0 0 0 .143-.368c0-.143-.081-.225-.143-.306-.53-.757-2.309-2.023-1.94-4.496.224-1.798 1.797-2.983 3.207-2.922h.368c.593 0 1.206.143 1.635.143.817 0 1.634-.081 2.533-.817.307-.225.532-.45.981-.531.082 0 .143-.082.368 0 .225 0 .45.082.593.225.755.53.817 1.634.898 2.533 0 .531.082 1.717.082 2.023.082.756.225.9.675 1.042.224.082.45.143.756.225.98.306 1.573.531 1.94.899.225.225.307.45.368.674.143.818-.674 1.86-2.697 2.84-2.247 1.043-4.863 1.267-6.722 1.043l-.674-.082c-1.492-.225-2.31 1.716-1.43 2.983.592.817 2.165 1.43 3.657 1.43 3.596 0 6.354-1.491 7.335-2.84l.082-.143c.082-.082 0-.143-.082-.082-.817.593-4.556 2.84-8.52 2.166 0 0-.45-.082-.9-.225-.367-.142-1.041-.449-1.205-1.205 3.351.98 5.374 0 5.374 0ZM20.642 10.294c1.206-1.43 2.759-2.697 4.107-3.371.082 0 .082 0 .082.081-.082.225-.306.593-.368.9 0 .081.082.081.082.081.817-.593 2.309-1.206 3.596-1.267.082 0 .082.082.082.082-.225.143-.368.368-.593.592 0 0 0 .082.082.082.9 0 2.166.307 2.983.818.082 0 0 .143-.082.143-1.266-.307-3.29-.532-5.455 0-1.941.45-3.372 1.205-4.414 1.94-.102-.02-.163-.02-.102-.081Zm106.985 3.346c-1.86 0-2.697 1.35-3.065 2.166-.225.532-.225.675-.368.675-.225 0-.082-.45.082-.9.225-.98.082-1.716.082-1.716h-2.616v12.567h3.596v-3.964c.45.756 1.206 1.491 2.391 1.491 2.615 0 3.882-2.166 3.882-5.149-.02-3.371-1.593-5.17-3.984-5.17Zm-.96 7.929c-.818 0-1.431-1.042-1.431-2.473 0-1.43.593-2.472 1.431-2.472.98 0 1.43.899 1.43 2.472-.021 1.655-.388 2.473-1.43 2.473Zm-70.12-7.928c-1.573 0-2.309 1.267-2.697 2.023-.225.45-.225.818-.45.818-.224 0-.081-.307-.224-.981-.225-.9-.981-1.86-2.534-1.86-1.635 0-2.39 1.43-2.697 2.166-.225.531-.225.675-.368.675-.225 0-.082-.45.082-.9.224-.98.081-1.716.081-1.716h-2.615v9.87h3.514V18.81c0-.981.368-2.166 1.124-2.166.818 0 .981.593.981 1.716v5.374h3.596V18.81c0-.9.368-2.166 1.124-2.166.817 0 .98.899.98 1.716v5.313h3.434V17.85c-.041-2.555-.94-4.21-3.33-4.21Zm60.707 0c-1.574 0-2.309 1.267-2.698 2.023-.224.45-.224.818-.449.818s-.082-.368-.225-.981c-.306-.9-.899-1.86-2.534-1.86-1.634 0-2.39 1.43-2.697 2.166-.224.531-.224.675-.367.675-.225 0-.082-.45.081-.9.225-.98.082-1.716.082-1.716h-2.615v9.87h3.596V18.81c0-.981.368-2.166 1.124-2.166.817 0 .98.593.98 1.716v5.374h3.597V18.81c0-.9.367-2.166 1.123-2.166.818 0 .981.899.981 1.716v5.313h3.515V17.85c-.205-2.555-1.104-4.21-3.494-4.21Zm-51.287 0c-2.759 0-4.72.981-4.72.981v2.983s2.166-1.267 3.964-1.267c1.43 0 1.573.756 1.491 1.43 0 0-.367-.081-1.634-.081-2.922 0-4.414 1.349-4.414 3.433 0 2.023 1.635 2.84 3.065 2.84 2.023 0 2.922-1.349 3.208-2.023.225-.45.225-.756.368-.756.225 0 .143.225.143.674 0 .756 0 1.349.143 1.86h2.718v-4.863c-.082-3.045-1.124-5.21-4.332-5.21Zm-.9 7.785c-.817.225-1.266-.081-1.266-.592 0-.756.817-1.124 1.94-1.124.532 0 .982.082.982.082-.02.286-.756 1.41-1.655 1.634Zm11.055-10.543h3.596v12.852h-3.596V10.883Zm7.56 7.928c0-.9.817-1.716 2.31-1.716 1.634 0 2.982.817 3.289.98v-3.453s-1.042-.98-3.596-.98c-2.698 0-4.925 1.573-4.925 5.005 0 3.433 2.023 5.313 4.925 5.313 2.247 0 3.657-1.267 3.657-1.267v-3.29c-.45.225-1.635 1.043-3.29 1.043-1.777.081-2.37-.736-2.37-1.635Zm12.852-5.17c-2.084 0-2.84 1.941-2.983 2.31-.143.367-.225.53-.368.53-.224 0-.081-.45 0-.674.143-.531.532-1.798.532-3.433 0-1.123-.143-1.491-.143-1.491h-3.065v12.852h3.596v-4.924c0-.817.306-2.166 1.206-2.166.756 0 .98.531.98 1.635v5.455h3.596v-5.23c-.142-2.534-.51-4.864-3.35-4.864Zm4.414.225v9.87h3.596v-9.87s-.592.368-1.798.368c-1.205-.062-1.798-.368-1.798-.368Zm1.796-.286c1.196 0 2.166-.641 2.166-1.43 0-.79-.97-1.431-2.166-1.431s-2.166.64-2.166 1.43c0 .79.97 1.43 2.166 1.43Zm-31.322.287v9.87h3.576v-9.87s-.593.368-1.798.368c0-.061-1.778-.368-1.778-.368Zm1.775-.287c1.196 0 2.166-.641 2.166-1.43 0-.79-.97-1.431-2.166-1.431s-2.166.64-2.166 1.43c0 .79.97 1.43 2.166 1.43Z"/>
</svg>