<svg xmlns="http://www.w3.org/2000/svg" fill="none" viewBox="0 0 120 30">
  <mask id="a" width="105" height="30" x="7" y="0" maskUnits="userSpaceOnUse" style="mask-type:luminance">
    <path fill="#fff" d="M111.898.43H7.715v28.814h104.183V.43Z"/>
  </mask>
  <g mask="url(#a)">
    <path fill="#000" d="M57.254 5.594h2.774L56 17.716h-3.177L49.83 8.588l-2.994 9.16h-3.102L39.707 5.595h2.806l2.882 9.235 2.956-9.235h2.995l3.027 9.273 2.881-9.273Z"/>
    <mask id="b" width="105" height="30" x="7" y="0" maskUnits="userSpaceOnUse" style="mask-type:luminance">
      <path fill="#fff" d="M111.898.43H7.715v28.669h104.183V.429Z"/>
    </mask>
    <g fill="#000" mask="url(#b)">
      <path d="M71.848 12.666h-8.94c.09.622.318 1.215.667 1.737.328.442.76.796 1.257 1.032a4.14 4.14 0 0 0 1.624.333c.631 0 1.257-.113 1.85-.333a5.63 5.63 0 0 0 1.66-.962l1.329 1.877a6.1 6.1 0 0 1-2.29 1.31 9.558 9.558 0 0 1-2.694.408 6.57 6.57 0 0 1-3.22-.784 5.384 5.384 0 0 1-2.182-2.257 7.607 7.607 0 0 1 0-6.687 5.745 5.745 0 0 1 2.145-2.253 6.218 6.218 0 0 1 3.14-.812 5.44 5.44 0 0 1 5.025 3.065c.5 1.037.752 2.176.737 3.327a6.18 6.18 0 0 0-.112 1m-2.652-2.047a3.806 3.806 0 0 0-1.037-2.22 2.787 2.787 0 0 0-2.032-.774 2.948 2.948 0 0 0-2.178.812 3.806 3.806 0 0 0-1.037 2.182h6.284Zm13.962-4.5a5.918 5.918 0 0 1 2.183 2.29 7.04 7.04 0 0 1 0 6.57 5.932 5.932 0 0 1-2.183 2.294 5.631 5.631 0 0 1-3.064.812 5.487 5.487 0 0 1-2.182-.446 4.641 4.641 0 0 1-1.624-1.29v1.44h-2.661V.47h2.66v6.61a4.655 4.655 0 0 1 1.625-1.295 4.524 4.524 0 0 1 2.182-.441 5.575 5.575 0 0 1 3.064.774Zm-1.44 8.94a3.402 3.402 0 0 0 1.295-1.409c.29-.611.44-1.28.441-1.957a4.459 4.459 0 0 0-.441-1.957 3.412 3.412 0 0 0-1.295-1.408 3.825 3.825 0 0 0-3.84 0 3.383 3.383 0 0 0-1.294 1.408 4.125 4.125 0 0 0-.442 1.995c-.003.69.148 1.37.442 1.994a3.37 3.37 0 0 0 1.295 1.408 3.814 3.814 0 0 0 1.92.516 5.053 5.053 0 0 0 1.919-.59Zm17.551-2.395h-8.954a4.13 4.13 0 0 0 .662 1.736c.33.44.76.795 1.257 1.033.514.22 1.066.333 1.624.333.631 0 1.258-.113 1.85-.333a5.632 5.632 0 0 0 1.66-.962l1.333 1.877a6.101 6.101 0 0 1-2.285 1.31 9.506 9.506 0 0 1-2.694.407 6.569 6.569 0 0 1-3.215-.774 5.383 5.383 0 0 1-2.182-2.257 7.607 7.607 0 0 1 0-6.688 5.745 5.745 0 0 1 2.145-2.252 6.228 6.228 0 0 1 3.14-.812 5.44 5.44 0 0 1 5.026 3.064 7.44 7.44 0 0 1 .736 3.328c-.037.258-.07.591-.108 1m-2.656-2.056a3.755 3.755 0 0 0-1.037-2.22 2.816 2.816 0 0 0-2.065-.774 2.961 2.961 0 0 0-2.182.812 3.665 3.665 0 0 0-1.01 2.182h6.294Zm15.294 7.137h-3.253l-3.069-4.21-3.027 4.21h-3.102l4.581-6.204-4.543-5.95h3.247l2.957 4.064 2.956-4.064h3.14l-4.472 5.913 4.585 6.241ZM80.015 27.767h-.554V22.89h.666v1.849a1.409 1.409 0 0 1 1.183-.592c.225.002.448.038.662.108.202.095.38.234.52.409.264.378.393.834.367 1.295a2.092 2.092 0 0 1-.517 1.473c-.146.147-.322.26-.516.334a1.653 1.653 0 0 1-.591.112 1.436 1.436 0 0 1-.666-.15 1.97 1.97 0 0 1-.517-.441l-.037.479Zm2.182-1.807a1.126 1.126 0 0 0-.666-1.22 1.3 1.3 0 0 0-.371-.075c-.15.006-.298.032-.441.075a.794.794 0 0 0-.334.258c-.198.27-.29.604-.258.938-.028.375.091.746.334 1.033a.644.644 0 0 0 .328.22c.131.046.27.072.408.076.151-.007.301-.032.446-.076a.615.615 0 0 0 .329-.295 1.37 1.37 0 0 0 .225-.939m4.171-1.695-1.22 3.585c-.085.35-.245.68-.47.962a.592.592 0 0 1-.296.22 1.269 1.269 0 0 1-.37.075 1.286 1.286 0 0 1-.404-.075v-.516a1 1 0 0 0 .333.038.329.329 0 0 0 .183-.038.43.43 0 0 0 .146-.112c.123-.197.223-.409.295-.63h-.22l-1.3-3.542h.695l1 2.989.994-2.99.634.033Zm8.94-1.37h-1.22v4.914h1.22v-4.913Zm9.977 1.402a2.075 2.075 0 0 0-1.037-.258 1.28 1.28 0 0 0-1.366 1.296 1.255 1.255 0 0 0 .395.95 1.265 1.265 0 0 0 .971.34c.362.008.72-.08 1.037-.258v1.333a4.002 4.002 0 0 1-1.108.183 2.548 2.548 0 1 1 0-5.097c.377.003.75.065 1.108.183v1.328Zm-12.896 0a2.046 2.046 0 0 0-1.033-.258 1.281 1.281 0 0 0-1.365 1.296 1.26 1.26 0 0 0 1.365 1.29 2 2 0 0 0 1.033-.258v1.333a3.98 3.98 0 0 1-1.145.183 2.548 2.548 0 1 1 0-5.097c.388.006.774.067 1.145.183v1.328Zm16.773-.22a1.02 1.02 0 0 0-.469.113.982.982 0 0 0-.404.295.941.941 0 0 0-.263.404.768.768 0 0 0-.07.47c.006.158.029.315.07.469.067.148.155.286.263.408.12.117.256.217.404.295.147.068.307.105.469.108a1.219 1.219 0 0 0 .887-.403.94.94 0 0 0 .258-.409.728.728 0 0 0 .075-.469 1.866 1.866 0 0 0-.075-.47 1.382 1.382 0 0 0-.258-.403 1.481 1.481 0 0 0-.404-.295.716.716 0 0 0-.469-.113m2.591 1.258a2.592 2.592 0 0 1-5.128.563 2.584 2.584 0 0 1 1.094-2.672c.426-.286.929-.44 1.443-.44a2.56 2.56 0 0 1 2.591 2.549ZM100.002 24a4.559 4.559 0 0 0-.94-.146c-.468 0-.773.146-.773.404s.37.408.553.47l.334.107a1.494 1.494 0 0 1 1.182 1.408c0 1.216-1.07 1.624-2.032 1.624a5.338 5.338 0 0 1-1.328-.15v-1.145c.381.12.778.183 1.178.187.629 0 .887-.187.887-.445 0-.259-.258-.404-.554-.47l-.258-.075c-.662-.22-1.253-.629-1.253-1.44 0-.94.662-1.517 1.807-1.517.41.013.819.063 1.22.15L100.002 24Z"/>
    </g>
    <mask id="c" width="26" height="20" x="7" y="0" maskUnits="userSpaceOnUse" style="mask-type:luminance">
      <path fill="#fff" d="M25.413.43a5.2 5.2 0 0 0-2.585.662 5.904 5.904 0 0 0-2.07 1.736l-2.623 7.04a6.915 6.915 0 0 1-.183.778c-.038.146-.075.259-.113.404a20.784 20.784 0 0 1-.774 2.145c-.226.403-.554.887-1.145.774l-.226-.113a2.712 2.712 0 0 1-.849-1.07c-.5-.926-.898-1.905-1.183-2.919a23.05 23.05 0 0 1-.774-3.876 3.356 3.356 0 0 0-.47-1.699 2.604 2.604 0 0 0-1.994-1.037 2.97 2.97 0 0 0-1.37.296 2.4 2.4 0 0 0-.939.938c-.25.384-.379.833-.37 1.29a2.5 2.5 0 0 0 .075.517c.145 1.478.774 6.063 2.881 9.536 0 0 1.736 3.36 5.467 3.285a6.317 6.317 0 0 0 2.586-.629 5.604 5.604 0 0 0 2.07-1.66l1.516-3.361 1.107-3.548.108-.554c.218-.935.515-1.85.887-2.736a2.06 2.06 0 0 1 .629-.938l.037-.038a.737.737 0 0 1 .812.108c.139.096.253.223.333.37.113.146.184.296.296.442.18.3.336.615.47.939.113.263.25.516.408.755a.037.037 0 0 1 .037.038c.253.273.554.497.887.661.328.178.697.267 1.07.259.341-.003.68-.065 1-.184.32-.12.61-.309.85-.553a4.33 4.33 0 0 0 .553-.85c.112-.321.174-.659.183-1 0-.367-.075-.731-.22-1.07 0 0-1-2.585-2.736-3.88A5.899 5.899 0 0 0 25.413.43Z"/>
    </mask>
    <g mask="url(#c)">
      <path fill="url(#d)" d="M28.576-8.007 1.191 3.063l9.93 24.565 27.385-11.07-9.93-24.565Z"/>
    </g>
    <mask id="e" width="26" height="20" x="7" y="0" maskUnits="userSpaceOnUse" style="mask-type:luminance">
      <path fill="#fff" d="M25.413.43a5.2 5.2 0 0 0-2.585.662 5.904 5.904 0 0 0-2.07 1.736l-2.623 7.04a6.915 6.915 0 0 1-.183.778c-.038.146-.075.259-.113.404a20.784 20.784 0 0 1-.774 2.145c-.226.403-.554.887-1.145.774l-.226-.113a2.712 2.712 0 0 1-.849-1.07c-.5-.926-.898-1.905-1.183-2.919a23.05 23.05 0 0 1-.774-3.876 3.356 3.356 0 0 0-.47-1.699 2.604 2.604 0 0 0-1.994-1.037 2.97 2.97 0 0 0-1.37.296 2.4 2.4 0 0 0-.939.938c-.25.384-.379.833-.37 1.29a2.5 2.5 0 0 0 .075.517c.145 1.478.774 6.063 2.881 9.536 0 0 1.736 3.36 5.467 3.285a6.317 6.317 0 0 0 2.586-.629 5.604 5.604 0 0 0 2.07-1.66l1.516-3.361 1.107-3.548.108-.554c.218-.935.515-1.85.887-2.736a2.06 2.06 0 0 1 .629-.938l.037-.038a.737.737 0 0 1 .812.108c.139.096.253.223.333.37.113.146.184.296.296.442.18.3.336.615.47.939.113.263.25.516.408.755a.037.037 0 0 1 .037.038c.253.273.554.497.887.661.328.178.697.267 1.07.259.341-.003.68-.065 1-.184.32-.12.61-.309.85-.553a4.33 4.33 0 0 0 .553-.85c.112-.321.174-.659.183-1 0-.367-.075-.731-.22-1.07 0 0-1-2.585-2.736-3.88A5.899 5.899 0 0 0 25.413.43Z"/>
    </mask>
    <g mask="url(#e)">
      <path fill="url(#f)" d="M30.211-5.881 2.831 1.805l6.655 23.712 27.381-7.686-6.656-23.712Z"/>
    </g>
    <mask id="g" width="26" height="20" x="7" y="0" maskUnits="userSpaceOnUse" style="mask-type:luminance">
      <path fill="#fff" d="M25.413.43a5.2 5.2 0 0 0-2.585.662 5.904 5.904 0 0 0-2.07 1.736l-2.623 7.04a6.915 6.915 0 0 1-.183.778c-.038.146-.075.259-.113.404a20.784 20.784 0 0 1-.774 2.145c-.226.403-.554.887-1.145.774l-.226-.113a2.712 2.712 0 0 1-.849-1.07c-.5-.926-.898-1.905-1.183-2.919a23.05 23.05 0 0 1-.774-3.876 3.356 3.356 0 0 0-.47-1.699 2.604 2.604 0 0 0-1.994-1.037 2.97 2.97 0 0 0-1.37.296 2.4 2.4 0 0 0-.939.938c-.25.384-.379.833-.37 1.29a2.5 2.5 0 0 0 .075.517c.145 1.478.774 6.063 2.881 9.536 0 0 1.736 3.36 5.467 3.285a6.317 6.317 0 0 0 2.586-.629 5.604 5.604 0 0 0 2.07-1.66l1.516-3.361 1.107-3.548.108-.554c.218-.935.515-1.85.887-2.736a2.06 2.06 0 0 1 .629-.938l.037-.038a.737.737 0 0 1 .812.108c.139.096.253.223.333.37.113.146.184.296.296.442.18.3.336.615.47.939.113.263.25.516.408.755a.037.037 0 0 1 .037.038c.253.273.554.497.887.661.328.178.697.267 1.07.259.341-.003.68-.065 1-.184.32-.12.61-.309.85-.553a4.33 4.33 0 0 0 .553-.85c.112-.321.174-.659.183-1 0-.367-.075-.731-.22-1.07 0 0-1-2.585-2.736-3.88A5.899 5.899 0 0 0 25.413.43Z"/>
    </mask>
    <g mask="url(#g)">
      <path fill="url(#h)" d="M7.736-.043 7.35 19.203l24.637.495L32.374.45 7.736-.043Z"/>
    </g>
    <mask id="i" width="26" height="20" x="7" y="0" maskUnits="userSpaceOnUse" style="mask-type:luminance">
      <path fill="#fff" d="M25.413.43a5.2 5.2 0 0 0-2.585.662 5.904 5.904 0 0 0-2.07 1.736l-2.623 7.04a6.915 6.915 0 0 1-.183.778c-.038.146-.075.259-.113.404a20.784 20.784 0 0 1-.774 2.145c-.226.403-.554.887-1.145.774l-.226-.113a2.712 2.712 0 0 1-.849-1.07c-.5-.926-.898-1.905-1.183-2.919a23.05 23.05 0 0 1-.774-3.876 3.356 3.356 0 0 0-.47-1.699 2.604 2.604 0 0 0-1.994-1.037 2.97 2.97 0 0 0-1.37.296 2.4 2.4 0 0 0-.939.938c-.25.384-.379.833-.37 1.29a2.5 2.5 0 0 0 .075.517c.145 1.478.774 6.063 2.881 9.536 0 0 1.736 3.36 5.467 3.285a6.317 6.317 0 0 0 2.586-.629 5.604 5.604 0 0 0 2.07-1.66l1.516-3.361 1.107-3.548.108-.554c.218-.935.515-1.85.887-2.736a2.06 2.06 0 0 1 .629-.938l.037-.038a.737.737 0 0 1 .812.108c.139.096.253.223.333.37.113.146.184.296.296.442.18.3.336.615.47.939.113.263.25.516.408.755a.037.037 0 0 1 .037.038c.253.273.554.497.887.661.328.178.697.267 1.07.259.341-.003.68-.065 1-.184.32-.12.61-.309.85-.553a4.33 4.33 0 0 0 .553-.85c.112-.321.174-.659.183-1 0-.367-.075-.731-.22-1.07 0 0-1-2.585-2.736-3.88A5.899 5.899 0 0 0 25.413.43Z"/>
    </mask>
    <g mask="url(#i)">
      <path fill="url(#j)" d="M31.971-.15 7.256.452 7.729 19.8l24.715-.604L31.97-.151Z"/>
    </g>
    <mask id="k" width="26" height="20" x="7" y="0" maskUnits="userSpaceOnUse" style="mask-type:luminance">
      <path fill="#fff" d="M25.413.43a5.2 5.2 0 0 0-2.585.662 5.904 5.904 0 0 0-2.07 1.736l-2.623 7.04a6.915 6.915 0 0 1-.183.778c-.038.146-.075.259-.113.404a20.784 20.784 0 0 1-.774 2.145c-.226.403-.554.887-1.145.774l-.226-.113a2.712 2.712 0 0 1-.849-1.07c-.5-.926-.898-1.905-1.183-2.919a23.05 23.05 0 0 1-.774-3.876 3.356 3.356 0 0 0-.47-1.699 2.604 2.604 0 0 0-1.994-1.037 2.97 2.97 0 0 0-1.37.296 2.4 2.4 0 0 0-.939.938c-.25.384-.379.833-.37 1.29a2.5 2.5 0 0 0 .075.517c.145 1.478.774 6.063 2.881 9.536 0 0 1.736 3.36 5.467 3.285a6.317 6.317 0 0 0 2.586-.629 5.604 5.604 0 0 0 2.07-1.66l1.516-3.361 1.107-3.548.108-.554c.218-.935.515-1.85.887-2.736a2.06 2.06 0 0 1 .629-.938l.037-.038a.737.737 0 0 1 .812.108c.139.096.253.223.333.37.113.146.184.296.296.442.18.3.336.615.47.939.113.263.25.516.408.755a.037.037 0 0 1 .037.038c.253.273.554.497.887.661.328.178.697.267 1.07.259.341-.003.68-.065 1-.184.32-.12.61-.309.85-.553a4.33 4.33 0 0 0 .553-.85c.112-.321.174-.659.183-1 0-.367-.075-.731-.22-1.07 0 0-1-2.585-2.736-3.88A5.899 5.899 0 0 0 25.413.43Z"/>
    </mask>
    <g mask="url(#k)">
      <path fill="url(#l)" d="M31.971-.15 7.256.452 7.729 19.8l24.715-.604L31.97-.151Z"/>
    </g>
    <mask id="m" width="26" height="20" x="7" y="0" maskUnits="userSpaceOnUse" style="mask-type:luminance">
      <path fill="#fff" d="M25.413.43a5.2 5.2 0 0 0-2.585.662 5.904 5.904 0 0 0-2.07 1.736l-2.623 7.04a6.915 6.915 0 0 1-.183.778c-.038.146-.075.259-.113.404a20.784 20.784 0 0 1-.774 2.145c-.226.403-.554.887-1.145.774l-.226-.113a2.712 2.712 0 0 1-.849-1.07c-.5-.926-.898-1.905-1.183-2.919a23.05 23.05 0 0 1-.774-3.876 3.356 3.356 0 0 0-.47-1.699 2.604 2.604 0 0 0-1.994-1.037 2.97 2.97 0 0 0-1.37.296 2.4 2.4 0 0 0-.939.938c-.25.384-.379.833-.37 1.29a2.5 2.5 0 0 0 .075.517c.145 1.478.774 6.063 2.881 9.536 0 0 1.736 3.36 5.467 3.285a6.317 6.317 0 0 0 2.586-.629 5.604 5.604 0 0 0 2.07-1.66l1.516-3.361 1.107-3.548.108-.554c.218-.935.515-1.85.887-2.736a2.06 2.06 0 0 1 .629-.938l.037-.038a.737.737 0 0 1 .812.108c.139.096.253.223.333.37.113.146.184.296.296.442.18.3.336.615.47.939.113.263.25.516.408.755a.037.037 0 0 1 .037.038c.253.273.554.497.887.661.328.178.697.267 1.07.259.341-.003.68-.065 1-.184.32-.12.61-.309.85-.553a4.33 4.33 0 0 0 .553-.85c.112-.321.174-.659.183-1 0-.367-.075-.731-.22-1.07 0 0-1-2.585-2.736-3.88A5.899 5.899 0 0 0 25.413.43Z"/>
    </mask>
    <g mask="url(#m)">
      <path fill="url(#n)" d="M31.971-.15 7.256.452 7.729 19.8l24.715-.604L31.97-.151Z"/>
    </g>
    <mask id="o" width="26" height="20" x="7" y="0" maskUnits="userSpaceOnUse" style="mask-type:luminance">
      <path fill="#fff" d="M25.413.43a5.2 5.2 0 0 0-2.585.662 5.904 5.904 0 0 0-2.07 1.736l-2.623 7.04a6.915 6.915 0 0 1-.183.778c-.038.146-.075.259-.113.404a20.784 20.784 0 0 1-.774 2.145c-.226.403-.554.887-1.145.774l-.226-.113a2.712 2.712 0 0 1-.849-1.07c-.5-.926-.898-1.905-1.183-2.919a23.05 23.05 0 0 1-.774-3.876 3.356 3.356 0 0 0-.47-1.699 2.604 2.604 0 0 0-1.994-1.037 2.97 2.97 0 0 0-1.37.296 2.4 2.4 0 0 0-.939.938c-.25.384-.379.833-.37 1.29a2.5 2.5 0 0 0 .075.517c.145 1.478.774 6.063 2.881 9.536 0 0 1.736 3.36 5.467 3.285a6.317 6.317 0 0 0 2.586-.629 5.604 5.604 0 0 0 2.07-1.66l1.516-3.361 1.107-3.548.108-.554c.218-.935.515-1.85.887-2.736a2.06 2.06 0 0 1 .629-.938l.037-.038a.737.737 0 0 1 .812.108c.139.096.253.223.333.37.113.146.184.296.296.442.18.3.336.615.47.939.113.263.25.516.408.755a.037.037 0 0 1 .037.038c.253.273.554.497.887.661.328.178.697.267 1.07.259.341-.003.68-.065 1-.184.32-.12.61-.309.85-.553a4.33 4.33 0 0 0 .553-.85c.112-.321.174-.659.183-1 0-.367-.075-.731-.22-1.07 0 0-1-2.585-2.736-3.88A5.899 5.899 0 0 0 25.413.43Z"/>
    </mask>
    <g mask="url(#o)">
      <path fill="url(#p)" d="M11.661-8.548.78 16.125l27.25 12.018L38.91 3.471 11.661-8.548Z"/>
    </g>
    <mask id="q" width="26" height="20" x="7" y="0" maskUnits="userSpaceOnUse" style="mask-type:luminance">
      <path fill="#fff" d="M25.413.43a5.2 5.2 0 0 0-2.585.662 5.904 5.904 0 0 0-2.07 1.736l-2.623 7.04a6.915 6.915 0 0 1-.183.778c-.038.146-.075.259-.113.404a20.784 20.784 0 0 1-.774 2.145c-.226.403-.554.887-1.145.774l-.226-.113a2.712 2.712 0 0 1-.849-1.07c-.5-.926-.898-1.905-1.183-2.919a23.05 23.05 0 0 1-.774-3.876 3.356 3.356 0 0 0-.47-1.699 2.604 2.604 0 0 0-1.994-1.037 2.97 2.97 0 0 0-1.37.296 2.4 2.4 0 0 0-.939.938c-.25.384-.379.833-.37 1.29a2.5 2.5 0 0 0 .075.517c.145 1.478.774 6.063 2.881 9.536 0 0 1.736 3.36 5.467 3.285a6.317 6.317 0 0 0 2.586-.629 5.604 5.604 0 0 0 2.07-1.66l1.516-3.361 1.107-3.548.108-.554c.218-.935.515-1.85.887-2.736a2.06 2.06 0 0 1 .629-.938l.037-.038a.737.737 0 0 1 .812.108c.139.096.253.223.333.37.113.146.184.296.296.442.18.3.336.615.47.939.113.263.25.516.408.755a.037.037 0 0 1 .037.038c.253.273.554.497.887.661.328.178.697.267 1.07.259.341-.003.68-.065 1-.184.32-.12.61-.309.85-.553a4.33 4.33 0 0 0 .553-.85c.112-.321.174-.659.183-1 0-.367-.075-.731-.22-1.07 0 0-1-2.585-2.736-3.88A5.899 5.899 0 0 0 25.413.43Z"/>
    </mask>
    <g mask="url(#q)">
      <path fill="url(#r)" d="M15.803-11.025-1.139 12.93l25.028 17.7L40.83 6.676l-25.028-17.7Z"/>
    </g>
    <mask id="s" width="26" height="20" x="7" y="0" maskUnits="userSpaceOnUse" style="mask-type:luminance">
      <path fill="#fff" d="M25.413.43a5.2 5.2 0 0 0-2.585.662 5.904 5.904 0 0 0-2.07 1.736l-2.623 7.04a6.915 6.915 0 0 1-.183.778c-.038.146-.075.259-.113.404a20.784 20.784 0 0 1-.774 2.145c-.226.403-.554.887-1.145.774l-.226-.113a2.712 2.712 0 0 1-.849-1.07c-.5-.926-.898-1.905-1.183-2.919a23.05 23.05 0 0 1-.774-3.876 3.356 3.356 0 0 0-.47-1.699 2.604 2.604 0 0 0-1.994-1.037 2.97 2.97 0 0 0-1.37.296 2.4 2.4 0 0 0-.939.938c-.25.384-.379.833-.37 1.29a2.5 2.5 0 0 0 .075.517c.145 1.478.774 6.063 2.881 9.536 0 0 1.736 3.36 5.467 3.285a6.317 6.317 0 0 0 2.586-.629 5.604 5.604 0 0 0 2.07-1.66l1.516-3.361 1.107-3.548.108-.554c.218-.935.515-1.85.887-2.736a2.06 2.06 0 0 1 .629-.938l.037-.038a.737.737 0 0 1 .812.108c.139.096.253.223.333.37.113.146.184.296.296.442.18.3.336.615.47.939.113.263.25.516.408.755a.037.037 0 0 1 .037.038c.253.273.554.497.887.661.328.178.697.267 1.07.259.341-.003.68-.065 1-.184.32-.12.61-.309.85-.553a4.33 4.33 0 0 0 .553-.85c.112-.321.174-.659.183-1 0-.367-.075-.731-.22-1.07 0 0-1-2.585-2.736-3.88A5.899 5.899 0 0 0 25.413.43Z"/>
    </mask>
    <g mask="url(#s)">
      <path fill="url(#t)" d="M15.807-11.017-1.135 12.937l25.028 17.701L40.835 6.684 15.807-11.017Z"/>
    </g>
    <mask id="u" width="26" height="20" x="7" y="0" maskUnits="userSpaceOnUse" style="mask-type:luminance">
      <path fill="#fff" d="M25.413.43a5.2 5.2 0 0 0-2.585.662 5.904 5.904 0 0 0-2.07 1.736l-2.623 7.04a6.915 6.915 0 0 1-.183.778c-.038.146-.075.259-.113.404a20.784 20.784 0 0 1-.774 2.145c-.226.403-.554.887-1.145.774l-.226-.113a2.712 2.712 0 0 1-.849-1.07c-.5-.926-.898-1.905-1.183-2.919a23.05 23.05 0 0 1-.774-3.876 3.356 3.356 0 0 0-.47-1.699 2.604 2.604 0 0 0-1.994-1.037 2.97 2.97 0 0 0-1.37.296 2.4 2.4 0 0 0-.939.938c-.25.384-.379.833-.37 1.29a2.5 2.5 0 0 0 .075.517c.145 1.478.774 6.063 2.881 9.536 0 0 1.736 3.36 5.467 3.285a6.317 6.317 0 0 0 2.586-.629 5.604 5.604 0 0 0 2.07-1.66l1.516-3.361 1.107-3.548.108-.554c.218-.935.515-1.85.887-2.736a2.06 2.06 0 0 1 .629-.938l.037-.038a.737.737 0 0 1 .812.108c.139.096.253.223.333.37.113.146.184.296.296.442.18.3.336.615.47.939.113.263.25.516.408.755a.037.037 0 0 1 .037.038c.253.273.554.497.887.661.328.178.697.267 1.07.259.341-.003.68-.065 1-.184.32-.12.61-.309.85-.553a4.33 4.33 0 0 0 .553-.85c.112-.321.174-.659.183-1 0-.367-.075-.731-.22-1.07 0 0-1-2.585-2.736-3.88A5.899 5.899 0 0 0 25.413.43Z"/>
    </mask>
    <g mask="url(#u)">
      <path fill="url(#v)" d="M8.588-4.09 4.203 18.53l26.902 5.215 4.384-22.622L8.588-4.09Z"/>
    </g>
    <mask id="w" width="26" height="20" x="7" y="0" maskUnits="userSpaceOnUse" style="mask-type:luminance">
      <path fill="#fff" d="M25.413.43a5.2 5.2 0 0 0-2.585.662 5.904 5.904 0 0 0-2.07 1.736l-2.623 7.04a6.915 6.915 0 0 1-.183.778c-.038.146-.075.259-.113.404a20.784 20.784 0 0 1-.774 2.145c-.226.403-.554.887-1.145.774l-.226-.113a2.712 2.712 0 0 1-.849-1.07c-.5-.926-.898-1.905-1.183-2.919a23.05 23.05 0 0 1-.774-3.876 3.356 3.356 0 0 0-.47-1.699 2.604 2.604 0 0 0-1.994-1.037 2.97 2.97 0 0 0-1.37.296 2.4 2.4 0 0 0-.939.938c-.25.384-.379.833-.37 1.29a2.5 2.5 0 0 0 .075.517c.145 1.478.774 6.063 2.881 9.536 0 0 1.736 3.36 5.467 3.285a6.317 6.317 0 0 0 2.586-.629 5.604 5.604 0 0 0 2.07-1.66l1.516-3.361 1.107-3.548.108-.554c.218-.935.515-1.85.887-2.736a2.06 2.06 0 0 1 .629-.938l.037-.038a.737.737 0 0 1 .812.108c.139.096.253.223.333.37.113.146.184.296.296.442.18.3.336.615.47.939.113.263.25.516.408.755a.037.037 0 0 1 .037.038c.253.273.554.497.887.661.328.178.697.267 1.07.259.341-.003.68-.065 1-.184.32-.12.61-.309.85-.553a4.33 4.33 0 0 0 .553-.85c.112-.321.174-.659.183-1 0-.367-.075-.731-.22-1.07 0 0-1-2.585-2.736-3.88A5.899 5.899 0 0 0 25.413.43Z"/>
    </mask>
    <g mask="url(#w)">
      <path fill="url(#x)" d="m17.396-11.463-18.88 23.166 23.776 19.378 18.88-23.165-23.776-19.379Z"/>
    </g>
    <mask id="y" width="26" height="20" x="7" y="0" maskUnits="userSpaceOnUse" style="mask-type:luminance">
      <path fill="#fff" d="M25.413.43a5.2 5.2 0 0 0-2.585.662 5.904 5.904 0 0 0-2.07 1.736l-2.623 7.04a6.915 6.915 0 0 1-.183.778c-.038.146-.075.259-.113.404a20.784 20.784 0 0 1-.774 2.145c-.226.403-.554.887-1.145.774l-.226-.113a2.712 2.712 0 0 1-.849-1.07c-.5-.926-.898-1.905-1.183-2.919a23.05 23.05 0 0 1-.774-3.876 3.356 3.356 0 0 0-.47-1.699 2.604 2.604 0 0 0-1.994-1.037 2.97 2.97 0 0 0-1.37.296 2.4 2.4 0 0 0-.939.938c-.25.384-.379.833-.37 1.29a2.5 2.5 0 0 0 .075.517c.145 1.478.774 6.063 2.881 9.536 0 0 1.736 3.36 5.467 3.285a6.317 6.317 0 0 0 2.586-.629 5.604 5.604 0 0 0 2.07-1.66l1.516-3.361 1.107-3.548.108-.554c.218-.935.515-1.85.887-2.736a2.06 2.06 0 0 1 .629-.938l.037-.038a.737.737 0 0 1 .812.108c.139.096.253.223.333.37.113.146.184.296.296.442.18.3.336.615.47.939.113.263.25.516.408.755a.037.037 0 0 1 .037.038c.253.273.554.497.887.661.328.178.697.267 1.07.259.341-.003.68-.065 1-.184.32-.12.61-.309.85-.553a4.33 4.33 0 0 0 .553-.85c.112-.321.174-.659.183-1 0-.367-.075-.731-.22-1.07 0 0-1-2.585-2.736-3.88A5.899 5.899 0 0 0 25.413.43Z"/>
    </mask>
    <g mask="url(#y)">
      <path fill="url(#z)" d="M25.297-10.412-.672 5.602l15.073 24.442 25.968-16.013-15.072-24.443Z"/>
    </g>
    <mask id="A" width="26" height="20" x="7" y="0" maskUnits="userSpaceOnUse" style="mask-type:luminance">
      <path fill="#fff" d="M25.413.43a5.2 5.2 0 0 0-2.585.662 5.904 5.904 0 0 0-2.07 1.736l-2.623 7.04a6.915 6.915 0 0 1-.183.778c-.038.146-.075.259-.113.404a20.784 20.784 0 0 1-.774 2.145c-.226.403-.554.887-1.145.774l-.226-.113a2.712 2.712 0 0 1-.849-1.07c-.5-.926-.898-1.905-1.183-2.919a23.05 23.05 0 0 1-.774-3.876 3.356 3.356 0 0 0-.47-1.699 2.604 2.604 0 0 0-1.994-1.037 2.97 2.97 0 0 0-1.37.296 2.4 2.4 0 0 0-.939.938c-.25.384-.379.833-.37 1.29a2.5 2.5 0 0 0 .075.517c.145 1.478.774 6.063 2.881 9.536 0 0 1.736 3.36 5.467 3.285a6.317 6.317 0 0 0 2.586-.629 5.604 5.604 0 0 0 2.07-1.66l1.516-3.361 1.107-3.548.108-.554c.218-.935.515-1.85.887-2.736a2.06 2.06 0 0 1 .629-.938l.037-.038a.737.737 0 0 1 .812.108c.139.096.253.223.333.37.113.146.184.296.296.442.18.3.336.615.47.939.113.263.25.516.408.755a.037.037 0 0 1 .037.038c.253.273.554.497.887.661.328.178.697.267 1.07.259.341-.003.68-.065 1-.184.32-.12.61-.309.85-.553a4.33 4.33 0 0 0 .553-.85c.112-.321.174-.659.183-1 0-.367-.075-.731-.22-1.07 0 0-1-2.585-2.736-3.88A5.899 5.899 0 0 0 25.413.43Z"/>
    </mask>
    <g mask="url(#A)">
      <path fill="url(#B)" d="M21.738-11.56-1.551 8.36l19.525 22.828 23.289-19.919-19.525-22.828Z"/>
    </g>
    <mask id="C" width="26" height="20" x="7" y="0" maskUnits="userSpaceOnUse" style="mask-type:luminance">
      <path fill="#fff" d="M25.413.43a5.2 5.2 0 0 0-2.585.662 5.904 5.904 0 0 0-2.07 1.736l-2.623 7.04a6.915 6.915 0 0 1-.183.778c-.038.146-.075.259-.113.404a20.784 20.784 0 0 1-.774 2.145c-.226.403-.554.887-1.145.774l-.226-.113a2.712 2.712 0 0 1-.849-1.07c-.5-.926-.898-1.905-1.183-2.919a23.05 23.05 0 0 1-.774-3.876 3.356 3.356 0 0 0-.47-1.699 2.604 2.604 0 0 0-1.994-1.037 2.97 2.97 0 0 0-1.37.296 2.4 2.4 0 0 0-.939.938c-.25.384-.379.833-.37 1.29a2.5 2.5 0 0 0 .075.517c.145 1.478.774 6.063 2.881 9.536 0 0 1.736 3.36 5.467 3.285a6.317 6.317 0 0 0 2.586-.629 5.604 5.604 0 0 0 2.07-1.66l1.516-3.361 1.107-3.548.108-.554c.218-.935.515-1.85.887-2.736a2.06 2.06 0 0 1 .629-.938l.037-.038a.737.737 0 0 1 .812.108c.139.096.253.223.333.37.113.146.184.296.296.442.18.3.336.615.47.939.113.263.25.516.408.755a.037.037 0 0 1 .037.038c.253.273.554.497.887.661.328.178.697.267 1.07.259.341-.003.68-.065 1-.184.32-.12.61-.309.85-.553a4.33 4.33 0 0 0 .553-.85c.112-.321.174-.659.183-1 0-.367-.075-.731-.22-1.07 0 0-1-2.585-2.736-3.88A5.899 5.899 0 0 0 25.413.43Z"/>
    </mask>
    <g mask="url(#C)">
      <path fill="url(#D)" d="M8.063-2.46 5.48 18.93l26.16 3.16L34.224.702 8.064-2.46Z"/>
    </g>
    <mask id="E" width="26" height="20" x="7" y="0" maskUnits="userSpaceOnUse" style="mask-type:luminance">
      <path fill="#fff" d="M25.413.43a5.2 5.2 0 0 0-2.585.662 5.904 5.904 0 0 0-2.07 1.736l-2.623 7.04a6.915 6.915 0 0 1-.183.778c-.038.146-.075.259-.113.404a20.784 20.784 0 0 1-.774 2.145c-.226.403-.554.887-1.145.774l-.226-.113a2.712 2.712 0 0 1-.849-1.07c-.5-.926-.898-1.905-1.183-2.919a23.05 23.05 0 0 1-.774-3.876 3.356 3.356 0 0 0-.47-1.699 2.604 2.604 0 0 0-1.994-1.037 2.97 2.97 0 0 0-1.37.296 2.4 2.4 0 0 0-.939.938c-.25.384-.379.833-.37 1.29a2.5 2.5 0 0 0 .075.517c.145 1.478.774 6.063 2.881 9.536 0 0 1.736 3.36 5.467 3.285a6.317 6.317 0 0 0 2.586-.629 5.604 5.604 0 0 0 2.07-1.66l1.516-3.361 1.107-3.548.108-.554c.218-.935.515-1.85.887-2.736a2.06 2.06 0 0 1 .629-.938l.037-.038a.737.737 0 0 1 .812.108c.139.096.253.223.333.37.113.146.184.296.296.442.18.3.336.615.47.939.113.263.25.516.408.755a.037.037 0 0 1 .037.038c.253.273.554.497.887.661.328.178.697.267 1.07.259.341-.003.68-.065 1-.184.32-.12.61-.309.85-.553a4.33 4.33 0 0 0 .553-.85c.112-.321.174-.659.183-1 0-.367-.075-.731-.22-1.07 0 0-1-2.585-2.736-3.88A5.899 5.899 0 0 0 25.413.43Z"/>
    </mask>
    <g mask="url(#E)">
      <path fill="url(#F)" d="M26.167-9.919-.3 4.945l13.835 24.633L40 14.714 26.167-9.92Z"/>
    </g>
    <mask id="G" width="26" height="20" x="7" y="0" maskUnits="userSpaceOnUse" style="mask-type:luminance">
      <path fill="#fff" d="M25.413.43a5.2 5.2 0 0 0-2.585.662 5.904 5.904 0 0 0-2.07 1.736l-2.623 7.04a6.915 6.915 0 0 1-.183.778c-.038.146-.075.259-.113.404a20.784 20.784 0 0 1-.774 2.145c-.226.403-.554.887-1.145.774l-.226-.113a2.712 2.712 0 0 1-.849-1.07c-.5-.926-.898-1.905-1.183-2.919a23.05 23.05 0 0 1-.774-3.876 3.356 3.356 0 0 0-.47-1.699 2.604 2.604 0 0 0-1.994-1.037 2.97 2.97 0 0 0-1.37.296 2.4 2.4 0 0 0-.939.938c-.25.384-.379.833-.37 1.29a2.5 2.5 0 0 0 .075.517c.145 1.478.774 6.063 2.881 9.536 0 0 1.736 3.36 5.467 3.285a6.317 6.317 0 0 0 2.586-.629 5.604 5.604 0 0 0 2.07-1.66l1.516-3.361 1.107-3.548.108-.554c.218-.935.515-1.85.887-2.736a2.06 2.06 0 0 1 .629-.938l.037-.038a.737.737 0 0 1 .812.108c.139.096.253.223.333.37.113.146.184.296.296.442.18.3.336.615.47.939.113.263.25.516.408.755a.037.037 0 0 1 .037.038c.253.273.554.497.887.661.328.178.697.267 1.07.259.341-.003.68-.065 1-.184.32-.12.61-.309.85-.553a4.33 4.33 0 0 0 .553-.85c.112-.321.174-.659.183-1 0-.367-.075-.731-.22-1.07 0 0-1-2.585-2.736-3.88A5.899 5.899 0 0 0 25.413.43Z"/>
    </mask>
    <g mask="url(#G)">
      <path fill="url(#H)" d="M15.31-10.814-.987 13.336l25.38 17.125 16.295-24.15-25.38-17.125Z"/>
    </g>
    <mask id="I" width="26" height="20" x="7" y="0" maskUnits="userSpaceOnUse" style="mask-type:luminance">
      <path fill="#fff" d="M25.413.43a5.2 5.2 0 0 0-2.585.662 5.904 5.904 0 0 0-2.07 1.736l-2.623 7.04a6.915 6.915 0 0 1-.183.778c-.038.146-.075.259-.113.404a20.784 20.784 0 0 1-.774 2.145c-.226.403-.554.887-1.145.774l-.226-.113a2.712 2.712 0 0 1-.849-1.07c-.5-.926-.898-1.905-1.183-2.919a23.05 23.05 0 0 1-.774-3.876 3.356 3.356 0 0 0-.47-1.699 2.604 2.604 0 0 0-1.994-1.037 2.97 2.97 0 0 0-1.37.296 2.4 2.4 0 0 0-.939.938c-.25.384-.379.833-.37 1.29a2.5 2.5 0 0 0 .075.517c.145 1.478.774 6.063 2.881 9.536 0 0 1.736 3.36 5.467 3.285a6.317 6.317 0 0 0 2.586-.629 5.604 5.604 0 0 0 2.07-1.66l1.516-3.361 1.107-3.548.108-.554c.218-.935.515-1.85.887-2.736a2.06 2.06 0 0 1 .629-.938l.037-.038a.737.737 0 0 1 .812.108c.139.096.253.223.333.37.113.146.184.296.296.442.18.3.336.615.47.939.113.263.25.516.408.755a.037.037 0 0 1 .037.038c.253.273.554.497.887.661.328.178.697.267 1.07.259.341-.003.68-.065 1-.184.32-.12.61-.309.85-.553a4.33 4.33 0 0 0 .553-.85c.112-.321.174-.659.183-1 0-.367-.075-.731-.22-1.07 0 0-1-2.585-2.736-3.88A5.899 5.899 0 0 0 25.413.43Z"/>
    </mask>
    <g mask="url(#I)">
      <path fill="url(#J)" d="m18.91-11.679-20.553 22.21 22.43 20.757L41.34 9.078 18.91-11.68Z"/>
    </g>
    <mask id="K" width="26" height="20" x="7" y="0" maskUnits="userSpaceOnUse" style="mask-type:luminance">
      <path fill="#fff" d="M25.413.43a5.2 5.2 0 0 0-2.585.662 5.904 5.904 0 0 0-2.07 1.736l-2.623 7.04a6.915 6.915 0 0 1-.183.778c-.038.146-.075.259-.113.404a20.784 20.784 0 0 1-.774 2.145c-.226.403-.554.887-1.145.774l-.226-.113a2.712 2.712 0 0 1-.849-1.07c-.5-.926-.898-1.905-1.183-2.919a23.05 23.05 0 0 1-.774-3.876 3.356 3.356 0 0 0-.47-1.699 2.604 2.604 0 0 0-1.994-1.037 2.97 2.97 0 0 0-1.37.296 2.4 2.4 0 0 0-.939.938c-.25.384-.379.833-.37 1.29a2.5 2.5 0 0 0 .075.517c.145 1.478.774 6.063 2.881 9.536 0 0 1.736 3.36 5.467 3.285a6.317 6.317 0 0 0 2.586-.629 5.604 5.604 0 0 0 2.07-1.66l1.516-3.361 1.107-3.548.108-.554c.218-.935.515-1.85.887-2.736a2.06 2.06 0 0 1 .629-.938l.037-.038a.737.737 0 0 1 .812.108c.139.096.253.223.333.37.113.146.184.296.296.442.18.3.336.615.47.939.113.263.25.516.408.755a.037.037 0 0 1 .037.038c.253.273.554.497.887.661.328.178.697.267 1.07.259.341-.003.68-.065 1-.184.32-.12.61-.309.85-.553a4.33 4.33 0 0 0 .553-.85c.112-.321.174-.659.183-1 0-.367-.075-.731-.22-1.07 0 0-1-2.585-2.736-3.88A5.899 5.899 0 0 0 25.413.43Z"/>
    </mask>
    <g mask="url(#K)">
      <path fill="url(#L)" d="M30.185-5.946 2.793 1.82l6.731 23.74 27.392-7.767-6.73-23.74Z"/>
    </g>
    <mask id="M" width="26" height="20" x="7" y="0" maskUnits="userSpaceOnUse" style="mask-type:luminance">
      <path fill="#fff" d="M25.413.43a5.2 5.2 0 0 0-2.585.662 5.904 5.904 0 0 0-2.07 1.736l-2.623 7.04a6.915 6.915 0 0 1-.183.778c-.038.146-.075.259-.113.404a20.784 20.784 0 0 1-.774 2.145c-.226.403-.554.887-1.145.774l-.226-.113a2.712 2.712 0 0 1-.849-1.07c-.5-.926-.898-1.905-1.183-2.919a23.05 23.05 0 0 1-.774-3.876 3.356 3.356 0 0 0-.47-1.699 2.604 2.604 0 0 0-1.994-1.037 2.97 2.97 0 0 0-1.37.296 2.4 2.4 0 0 0-.939.938c-.25.384-.379.833-.37 1.29a2.5 2.5 0 0 0 .075.517c.145 1.478.774 6.063 2.881 9.536 0 0 1.736 3.36 5.467 3.285a6.317 6.317 0 0 0 2.586-.629 5.604 5.604 0 0 0 2.07-1.66l1.516-3.361 1.107-3.548.108-.554c.218-.935.515-1.85.887-2.736a2.06 2.06 0 0 1 .629-.938l.037-.038a.737.737 0 0 1 .812.108c.139.096.253.223.333.37.113.146.184.296.296.442.18.3.336.615.47.939.113.263.25.516.408.755a.037.037 0 0 1 .037.038c.253.273.554.497.887.661.328.178.697.267 1.07.259.341-.003.68-.065 1-.184.32-.12.61-.309.85-.553a4.33 4.33 0 0 0 .553-.85c.112-.321.174-.659.183-1 0-.367-.075-.731-.22-1.07 0 0-1-2.585-2.736-3.88A5.899 5.899 0 0 0 25.413.43Z"/>
    </mask>
    <g mask="url(#M)">
      <path fill="url(#N)" d="M29.256-7.247 1.784 2.547l8.673 24.33 27.474-9.793-8.674-24.33Z"/>
    </g>
    <mask id="O" width="26" height="20" x="7" y="0" maskUnits="userSpaceOnUse" style="mask-type:luminance">
      <path fill="#fff" d="M25.413.43a5.2 5.2 0 0 0-2.585.662 5.904 5.904 0 0 0-2.07 1.736l-2.623 7.04a6.915 6.915 0 0 1-.183.778c-.038.146-.075.259-.113.404a20.784 20.784 0 0 1-.774 2.145c-.226.403-.554.887-1.145.774l-.226-.113a2.712 2.712 0 0 1-.849-1.07c-.5-.926-.898-1.905-1.183-2.919a23.05 23.05 0 0 1-.774-3.876 3.356 3.356 0 0 0-.47-1.699 2.604 2.604 0 0 0-1.994-1.037 2.97 2.97 0 0 0-1.37.296 2.4 2.4 0 0 0-.939.938c-.25.384-.379.833-.37 1.29a2.5 2.5 0 0 0 .075.517c.145 1.478.774 6.063 2.881 9.536 0 0 1.736 3.36 5.467 3.285a6.317 6.317 0 0 0 2.586-.629 5.604 5.604 0 0 0 2.07-1.66l1.516-3.361 1.107-3.548.108-.554c.218-.935.515-1.85.887-2.736a2.06 2.06 0 0 1 .629-.938l.037-.038a.737.737 0 0 1 .812.108c.139.096.253.223.333.37.113.146.184.296.296.442.18.3.336.615.47.939.113.263.25.516.408.755a.037.037 0 0 1 .037.038c.253.273.554.497.887.661.328.178.697.267 1.07.259.341-.003.68-.065 1-.184.32-.12.61-.309.85-.553a4.33 4.33 0 0 0 .553-.85c.112-.321.174-.659.183-1 0-.367-.075-.731-.22-1.07 0 0-1-2.585-2.736-3.88A5.899 5.899 0 0 0 25.413.43Z"/>
    </mask>
    <g mask="url(#O)">
      <path fill="url(#P)" d="M25.352-10.388-.654 5.555l14.993 24.458L40.346 14.07 25.352-10.388Z"/>
    </g>
    <mask id="Q" width="14" height="14" x="19" y="0" maskUnits="userSpaceOnUse" style="mask-type:luminance">
      <path fill="#fff" d="M25.409.43a6.312 6.312 0 0 0-2.623.591 5.805 5.805 0 0 0-2.07 1.736l-1.661 4.468 3.252 6.246 1.107-3.547.108-.554c.219-.936.515-1.85.887-2.736.118-.366.336-.69.63-.939l.037-.037a.737.737 0 0 1 .812.108c.138.095.252.222.333.37.112.146.183.296.296.441.179.301.336.615.469.939.123.263.269.514.436.75a.038.038 0 0 1 .038.038c.252.273.553.498.887.662.328.178.697.267 1.07.258a2.92 2.92 0 0 0 1-.183c.32-.12.61-.31.849-.554.217-.26.403-.545.554-.849.112-.322.174-.659.182-1 0-.368-.074-.732-.22-1.07 0 0-1-2.585-2.736-3.88A5.9 5.9 0 0 0 25.409.43Z"/>
    </mask>
    <g mask="url(#Q)">
      <path fill="url(#R)" d="M31.4-1.955 16.42 1.102l3.074 15.062 14.979-3.057-3.074-15.062Z"/>
    </g>
    <mask id="S" width="24" height="20" x="10" y="0" maskUnits="userSpaceOnUse" style="mask-type:luminance">
      <path fill="#fff" d="M15.693.43a5.295 5.295 0 0 0-.662.075 6.255 6.255 0 0 0-4.064 2.816c.248.059.484.159.7.295.288.171.54.398.74.667.306.514.468 1.1.47 1.698.155 1.284.403 2.554.741 3.802.354-1.37.941-2.67 1.737-3.84.093-.138.218-.253.366-.332a.54.54 0 0 1 .258-.075.873.873 0 0 1 .446.112c.037 0 .037.038.075.038.119.113.228.236.328.366.196.36.37.731.521 1.112.296.812.554 1.844.554 1.844l.737 2.957a21.107 21.107 0 0 0 1 2.994c1.145 2.623 2.88 3.36 2.88 3.36a6.57 6.57 0 0 0 2.77.737 5.443 5.443 0 0 0 2.66-.554 7.166 7.166 0 0 0 2.347-1.877c.386-.527.731-1.082 1.032-1.661a20.004 20.004 0 0 0 1.591-4.29 23.94 23.94 0 0 0 .592-2.815c.075-.47.145-.939.183-1.408a3.18 3.18 0 0 0-.038-1.328c-.033-.075-.033-.15-.07-.226a2.623 2.623 0 0 0-1.145-1.29 2.191 2.191 0 0 0-1.258-.37 3.097 3.097 0 0 0-.629.074c.478.697.886 1.44 1.22 2.215.146.338.221.702.22 1.07-.008.34-.07.678-.182 1-.15.304-.337.589-.554.85a1.914 1.914 0 0 1-.85.553c-.32.12-.657.183-.999.188a2.286 2.286 0 0 1-1.29-.371l-.263.995c-.198.765-.47 1.508-.812 2.22a7.983 7.983 0 0 1-.662 1.253 1.646 1.646 0 0 1-.704.628 1.01 1.01 0 0 1-.333.038.592.592 0 0 1-.333-.112 1.877 1.877 0 0 1-.47-.592 7.266 7.266 0 0 1-.403-.755c-.22-.554-.591-1.92-.591-1.92l-.348-1.46-.37-1.44-.258-.962a11.015 11.015 0 0 0-1.629-3.693 6.204 6.204 0 0 0-3.027-2.29A5.06 5.06 0 0 0 16.42.43h-.727Z"/>
    </mask>
    <g mask="url(#S)">
      <path fill="url(#T)" d="m13.218-6.359-7.82 23.617 26.112 8.645 7.82-23.616-26.112-8.646Z"/>
    </g>
    <mask id="U" width="24" height="20" x="10" y="0" maskUnits="userSpaceOnUse" style="mask-type:luminance">
      <path fill="#fff" d="M15.693.43a5.295 5.295 0 0 0-.662.075 6.255 6.255 0 0 0-4.064 2.816c.248.059.484.159.7.295.288.171.54.398.74.667.306.514.468 1.1.47 1.698.155 1.284.403 2.554.741 3.802.354-1.37.941-2.67 1.737-3.84.093-.138.218-.253.366-.332a.54.54 0 0 1 .258-.075.873.873 0 0 1 .446.112c.037 0 .037.038.075.038.119.113.228.236.328.366.196.36.37.731.521 1.112.296.812.554 1.844.554 1.844l.737 2.957a21.107 21.107 0 0 0 1 2.994c1.145 2.623 2.88 3.36 2.88 3.36a6.57 6.57 0 0 0 2.77.737 5.443 5.443 0 0 0 2.66-.554 7.166 7.166 0 0 0 2.347-1.877c.386-.527.731-1.082 1.032-1.661a20.004 20.004 0 0 0 1.591-4.29 23.94 23.94 0 0 0 .592-2.815c.075-.47.145-.939.183-1.408a3.18 3.18 0 0 0-.038-1.328c-.033-.075-.033-.15-.07-.226a2.623 2.623 0 0 0-1.145-1.29 2.191 2.191 0 0 0-1.258-.37 3.097 3.097 0 0 0-.629.074c.478.697.886 1.44 1.22 2.215.146.338.221.702.22 1.07-.008.34-.07.678-.182 1-.15.304-.337.589-.554.85a1.914 1.914 0 0 1-.85.553c-.32.12-.657.183-.999.188a2.286 2.286 0 0 1-1.29-.371l-.263.995c-.198.765-.47 1.508-.812 2.22a7.983 7.983 0 0 1-.662 1.253 1.646 1.646 0 0 1-.704.628 1.01 1.01 0 0 1-.333.038.592.592 0 0 1-.333-.112 1.877 1.877 0 0 1-.47-.592 7.266 7.266 0 0 1-.403-.755c-.22-.554-.591-1.92-.591-1.92l-.348-1.46-.37-1.44-.258-.962a11.015 11.015 0 0 0-1.629-3.693 6.204 6.204 0 0 0-3.027-2.29A5.06 5.06 0 0 0 16.42.43h-.727Z"/>
    </mask>
    <g mask="url(#U)">
      <path fill="url(#V)" d="M11.48-2.98 8.175 18.656l25.06 3.83L36.541.85l-25.06-3.83Z"/>
    </g>
    <mask id="W" width="24" height="20" x="10" y="0" maskUnits="userSpaceOnUse" style="mask-type:luminance">
      <path fill="#fff" d="M15.693.43a5.295 5.295 0 0 0-.662.075 6.255 6.255 0 0 0-4.064 2.816c.248.059.484.159.7.295.288.171.54.398.74.667.306.514.468 1.1.47 1.698.155 1.284.403 2.554.741 3.802.354-1.37.941-2.67 1.737-3.84.093-.138.218-.253.366-.332a.54.54 0 0 1 .258-.075.873.873 0 0 1 .446.112c.037 0 .037.038.075.038.119.113.228.236.328.366.196.36.37.731.521 1.112.296.812.554 1.844.554 1.844l.737 2.957a21.107 21.107 0 0 0 1 2.994c1.145 2.623 2.88 3.36 2.88 3.36a6.57 6.57 0 0 0 2.77.737 5.443 5.443 0 0 0 2.66-.554 7.166 7.166 0 0 0 2.347-1.877c.386-.527.731-1.082 1.032-1.661a20.004 20.004 0 0 0 1.591-4.29 23.94 23.94 0 0 0 .592-2.815c.075-.47.145-.939.183-1.408a3.18 3.18 0 0 0-.038-1.328c-.033-.075-.033-.15-.07-.226a2.623 2.623 0 0 0-1.145-1.29 2.191 2.191 0 0 0-1.258-.37 3.097 3.097 0 0 0-.629.074c.478.697.886 1.44 1.22 2.215.146.338.221.702.22 1.07-.008.34-.07.678-.182 1-.15.304-.337.589-.554.85a1.914 1.914 0 0 1-.85.553c-.32.12-.657.183-.999.188a2.286 2.286 0 0 1-1.29-.371l-.263.995c-.198.765-.47 1.508-.812 2.22a7.983 7.983 0 0 1-.662 1.253 1.646 1.646 0 0 1-.704.628 1.01 1.01 0 0 1-.333.038.592.592 0 0 1-.333-.112 1.877 1.877 0 0 1-.47-.592 7.266 7.266 0 0 1-.403-.755c-.22-.554-.591-1.92-.591-1.92l-.348-1.46-.37-1.44-.258-.962a11.015 11.015 0 0 0-1.629-3.693 6.204 6.204 0 0 0-3.027-2.29A5.06 5.06 0 0 0 16.42.43h-.727Z"/>
    </mask>
    <g mask="url(#W)">
      <path fill="url(#X)" d="M11.485-2.98 8.178 18.656l25.06 3.83L36.545.85l-25.06-3.83Z"/>
    </g>
    <mask id="Y" width="24" height="20" x="10" y="0" maskUnits="userSpaceOnUse" style="mask-type:luminance">
      <path fill="#fff" d="M15.693.43a5.295 5.295 0 0 0-.662.075 6.255 6.255 0 0 0-4.064 2.816c.248.059.484.159.7.295.288.171.54.398.74.667.306.514.468 1.1.47 1.698.155 1.284.403 2.554.741 3.802.354-1.37.941-2.67 1.737-3.84.093-.138.218-.253.366-.332a.54.54 0 0 1 .258-.075.873.873 0 0 1 .446.112c.037 0 .037.038.075.038.119.113.228.236.328.366.196.36.37.731.521 1.112.296.812.554 1.844.554 1.844l.737 2.957a21.107 21.107 0 0 0 1 2.994c1.145 2.623 2.88 3.36 2.88 3.36a6.57 6.57 0 0 0 2.77.737 5.443 5.443 0 0 0 2.66-.554 7.166 7.166 0 0 0 2.347-1.877c.386-.527.731-1.082 1.032-1.661a20.004 20.004 0 0 0 1.591-4.29 23.94 23.94 0 0 0 .592-2.815c.075-.47.145-.939.183-1.408a3.18 3.18 0 0 0-.038-1.328c-.033-.075-.033-.15-.07-.226a2.623 2.623 0 0 0-1.145-1.29 2.191 2.191 0 0 0-1.258-.37 3.097 3.097 0 0 0-.629.074c.478.697.886 1.44 1.22 2.215.146.338.221.702.22 1.07-.008.34-.07.678-.182 1-.15.304-.337.589-.554.85a1.914 1.914 0 0 1-.85.553c-.32.12-.657.183-.999.188a2.286 2.286 0 0 1-1.29-.371l-.263.995c-.198.765-.47 1.508-.812 2.22a7.983 7.983 0 0 1-.662 1.253 1.646 1.646 0 0 1-.704.628 1.01 1.01 0 0 1-.333.038.592.592 0 0 1-.333-.112 1.877 1.877 0 0 1-.47-.592 7.266 7.266 0 0 1-.403-.755c-.22-.554-.591-1.92-.591-1.92l-.348-1.46-.37-1.44-.258-.962a11.015 11.015 0 0 0-1.629-3.693 6.204 6.204 0 0 0-3.027-2.29A5.06 5.06 0 0 0 16.42.43h-.727Z"/>
    </mask>
    <g mask="url(#Y)">
      <path fill="url(#Z)" d="M11.464-2.95 8.191 18.665l25.048 3.792L36.51.843 11.464-2.949Z"/>
    </g>
    <mask id="aa" width="24" height="20" x="10" y="0" maskUnits="userSpaceOnUse" style="mask-type:luminance">
      <path fill="#fff" d="M15.693.43a5.295 5.295 0 0 0-.662.075 6.255 6.255 0 0 0-4.064 2.816c.248.059.484.159.7.295.288.171.54.398.74.667.306.514.468 1.1.47 1.698.155 1.284.403 2.554.741 3.802.354-1.37.941-2.67 1.737-3.84.093-.138.218-.253.366-.332a.54.54 0 0 1 .258-.075.873.873 0 0 1 .446.112c.037 0 .037.038.075.038.119.113.228.236.328.366.196.36.37.731.521 1.112.296.812.554 1.844.554 1.844l.737 2.957a21.107 21.107 0 0 0 1 2.994c1.145 2.623 2.88 3.36 2.88 3.36a6.57 6.57 0 0 0 2.77.737 5.443 5.443 0 0 0 2.66-.554 7.166 7.166 0 0 0 2.347-1.877c.386-.527.731-1.082 1.032-1.661a20.004 20.004 0 0 0 1.591-4.29 23.94 23.94 0 0 0 .592-2.815c.075-.47.145-.939.183-1.408a3.18 3.18 0 0 0-.038-1.328c-.033-.075-.033-.15-.07-.226a2.623 2.623 0 0 0-1.145-1.29 2.191 2.191 0 0 0-1.258-.37 3.097 3.097 0 0 0-.629.074c.478.697.886 1.44 1.22 2.215.146.338.221.702.22 1.07-.008.34-.07.678-.182 1-.15.304-.337.589-.554.85a1.914 1.914 0 0 1-.85.553c-.32.12-.657.183-.999.188a2.286 2.286 0 0 1-1.29-.371l-.263.995c-.198.765-.47 1.508-.812 2.22a7.983 7.983 0 0 1-.662 1.253 1.646 1.646 0 0 1-.704.628 1.01 1.01 0 0 1-.333.038.592.592 0 0 1-.333-.112 1.877 1.877 0 0 1-.47-.592 7.266 7.266 0 0 1-.403-.755c-.22-.554-.591-1.92-.591-1.92l-.348-1.46-.37-1.44-.258-.962a11.015 11.015 0 0 0-1.629-3.693 6.204 6.204 0 0 0-3.027-2.29A5.06 5.06 0 0 0 16.42.43h-.727Z"/>
    </mask>
    <g mask="url(#aa)">
      <path fill="url(#ab)" d="M33.422-2.29 8.73.704l2.559 21.11L35.98 18.82 33.422-2.29Z"/>
    </g>
    <mask id="ac" width="24" height="20" x="10" y="0" maskUnits="userSpaceOnUse" style="mask-type:luminance">
      <path fill="#fff" d="M15.693.43a5.295 5.295 0 0 0-.662.075 6.255 6.255 0 0 0-4.064 2.816c.248.059.484.159.7.295.288.171.54.398.74.667.306.514.468 1.1.47 1.698.155 1.284.403 2.554.741 3.802.354-1.37.941-2.67 1.737-3.84.093-.138.218-.253.366-.332a.54.54 0 0 1 .258-.075.873.873 0 0 1 .446.112c.037 0 .037.038.075.038.119.113.228.236.328.366.196.36.37.731.521 1.112.296.812.554 1.844.554 1.844l.737 2.957a21.107 21.107 0 0 0 1 2.994c1.145 2.623 2.88 3.36 2.88 3.36a6.57 6.57 0 0 0 2.77.737 5.443 5.443 0 0 0 2.66-.554 7.166 7.166 0 0 0 2.347-1.877c.386-.527.731-1.082 1.032-1.661a20.004 20.004 0 0 0 1.591-4.29 23.94 23.94 0 0 0 .592-2.815c.075-.47.145-.939.183-1.408a3.18 3.18 0 0 0-.038-1.328c-.033-.075-.033-.15-.07-.226a2.623 2.623 0 0 0-1.145-1.29 2.191 2.191 0 0 0-1.258-.37 3.097 3.097 0 0 0-.629.074c.478.697.886 1.44 1.22 2.215.146.338.221.702.22 1.07-.008.34-.07.678-.182 1-.15.304-.337.589-.554.85a1.914 1.914 0 0 1-.85.553c-.32.12-.657.183-.999.188a2.286 2.286 0 0 1-1.29-.371l-.263.995c-.198.765-.47 1.508-.812 2.22a7.983 7.983 0 0 1-.662 1.253 1.646 1.646 0 0 1-.704.628 1.01 1.01 0 0 1-.333.038.592.592 0 0 1-.333-.112 1.877 1.877 0 0 1-.47-.592 7.266 7.266 0 0 1-.403-.755c-.22-.554-.591-1.92-.591-1.92l-.348-1.46-.37-1.44-.258-.962a11.015 11.015 0 0 0-1.629-3.693 6.204 6.204 0 0 0-3.027-2.29A5.06 5.06 0 0 0 16.42.43h-.727Z"/>
    </mask>
    <g mask="url(#ac)">
      <path fill="url(#ad)" d="M32.157-5.397 6.195 1.734l6.365 23.17 25.962-7.132-6.365-23.17Z"/>
    </g>
    <mask id="ae" width="24" height="20" x="10" y="0" maskUnits="userSpaceOnUse" style="mask-type:luminance">
      <path fill="#fff" d="M15.693.43a5.295 5.295 0 0 0-.662.075 6.255 6.255 0 0 0-4.064 2.816c.248.059.484.159.7.295.288.171.54.398.74.667.306.514.468 1.1.47 1.698.155 1.284.403 2.554.741 3.802.354-1.37.941-2.67 1.737-3.84.093-.138.218-.253.366-.332a.54.54 0 0 1 .258-.075.873.873 0 0 1 .446.112c.037 0 .037.038.075.038.119.113.228.236.328.366.196.36.37.731.521 1.112.296.812.554 1.844.554 1.844l.737 2.957a21.107 21.107 0 0 0 1 2.994c1.145 2.623 2.88 3.36 2.88 3.36a6.57 6.57 0 0 0 2.77.737 5.443 5.443 0 0 0 2.66-.554 7.166 7.166 0 0 0 2.347-1.877c.386-.527.731-1.082 1.032-1.661a20.004 20.004 0 0 0 1.591-4.29 23.94 23.94 0 0 0 .592-2.815c.075-.47.145-.939.183-1.408a3.18 3.18 0 0 0-.038-1.328c-.033-.075-.033-.15-.07-.226a2.623 2.623 0 0 0-1.145-1.29 2.191 2.191 0 0 0-1.258-.37 3.097 3.097 0 0 0-.629.074c.478.697.886 1.44 1.22 2.215.146.338.221.702.22 1.07-.008.34-.07.678-.182 1-.15.304-.337.589-.554.85a1.914 1.914 0 0 1-.85.553c-.32.12-.657.183-.999.188a2.286 2.286 0 0 1-1.29-.371l-.263.995c-.198.765-.47 1.508-.812 2.22a7.983 7.983 0 0 1-.662 1.253 1.646 1.646 0 0 1-.704.628 1.01 1.01 0 0 1-.333.038.592.592 0 0 1-.333-.112 1.877 1.877 0 0 1-.47-.592 7.266 7.266 0 0 1-.403-.755c-.22-.554-.591-1.92-.591-1.92l-.348-1.46-.37-1.44-.258-.962a11.015 11.015 0 0 0-1.629-3.693 6.204 6.204 0 0 0-3.027-2.29A5.06 5.06 0 0 0 16.42.43h-.727Z"/>
    </mask>
    <g mask="url(#ae)">
      <path fill="url(#af)" d="M32.157-5.397 6.195 1.734l6.365 23.17 25.962-7.132-6.365-23.17Z"/>
    </g>
    <mask id="ag" width="24" height="20" x="10" y="0" maskUnits="userSpaceOnUse" style="mask-type:luminance">
      <path fill="#fff" d="M15.693.43a5.295 5.295 0 0 0-.662.075 6.255 6.255 0 0 0-4.064 2.816c.248.059.484.159.7.295.288.171.54.398.74.667.306.514.468 1.1.47 1.698.155 1.284.403 2.554.741 3.802.354-1.37.941-2.67 1.737-3.84.093-.138.218-.253.366-.332a.54.54 0 0 1 .258-.075.873.873 0 0 1 .446.112c.037 0 .037.038.075.038.119.113.228.236.328.366.196.36.37.731.521 1.112.296.812.554 1.844.554 1.844l.737 2.957a21.107 21.107 0 0 0 1 2.994c1.145 2.623 2.88 3.36 2.88 3.36a6.57 6.57 0 0 0 2.77.737 5.443 5.443 0 0 0 2.66-.554 7.166 7.166 0 0 0 2.347-1.877c.386-.527.731-1.082 1.032-1.661a20.004 20.004 0 0 0 1.591-4.29 23.94 23.94 0 0 0 .592-2.815c.075-.47.145-.939.183-1.408a3.18 3.18 0 0 0-.038-1.328c-.033-.075-.033-.15-.07-.226a2.623 2.623 0 0 0-1.145-1.29 2.191 2.191 0 0 0-1.258-.37 3.097 3.097 0 0 0-.629.074c.478.697.886 1.44 1.22 2.215.146.338.221.702.22 1.07-.008.34-.07.678-.182 1-.15.304-.337.589-.554.85a1.914 1.914 0 0 1-.85.553c-.32.12-.657.183-.999.188a2.286 2.286 0 0 1-1.29-.371l-.263.995c-.198.765-.47 1.508-.812 2.22a7.983 7.983 0 0 1-.662 1.253 1.646 1.646 0 0 1-.704.628 1.01 1.01 0 0 1-.333.038.592.592 0 0 1-.333-.112 1.877 1.877 0 0 1-.47-.592 7.266 7.266 0 0 1-.403-.755c-.22-.554-.591-1.92-.591-1.92l-.348-1.46-.37-1.44-.258-.962a11.015 11.015 0 0 0-1.629-3.693 6.204 6.204 0 0 0-3.027-2.29A5.06 5.06 0 0 0 16.42.43h-.727Z"/>
    </mask>
    <g mask="url(#ag)">
      <path fill="url(#ah)" d="M32.157-5.397 6.195 1.734l6.365 23.17 25.962-7.132-6.365-23.17Z"/>
    </g>
    <mask id="ai" width="24" height="20" x="10" y="0" maskUnits="userSpaceOnUse" style="mask-type:luminance">
      <path fill="#fff" d="M15.693.43a5.295 5.295 0 0 0-.662.075 6.255 6.255 0 0 0-4.064 2.816c.248.059.484.159.7.295.288.171.54.398.74.667.306.514.468 1.1.47 1.698.155 1.284.403 2.554.741 3.802.354-1.37.941-2.67 1.737-3.84.093-.138.218-.253.366-.332a.54.54 0 0 1 .258-.075.873.873 0 0 1 .446.112c.037 0 .037.038.075.038.119.113.228.236.328.366.196.36.37.731.521 1.112.296.812.554 1.844.554 1.844l.737 2.957a21.107 21.107 0 0 0 1 2.994c1.145 2.623 2.88 3.36 2.88 3.36a6.57 6.57 0 0 0 2.77.737 5.443 5.443 0 0 0 2.66-.554 7.166 7.166 0 0 0 2.347-1.877c.386-.527.731-1.082 1.032-1.661a20.004 20.004 0 0 0 1.591-4.29 23.94 23.94 0 0 0 .592-2.815c.075-.47.145-.939.183-1.408a3.18 3.18 0 0 0-.038-1.328c-.033-.075-.033-.15-.07-.226a2.623 2.623 0 0 0-1.145-1.29 2.191 2.191 0 0 0-1.258-.37 3.097 3.097 0 0 0-.629.074c.478.697.886 1.44 1.22 2.215.146.338.221.702.22 1.07-.008.34-.07.678-.182 1-.15.304-.337.589-.554.85a1.914 1.914 0 0 1-.85.553c-.32.12-.657.183-.999.188a2.286 2.286 0 0 1-1.29-.371l-.263.995c-.198.765-.47 1.508-.812 2.22a7.983 7.983 0 0 1-.662 1.253 1.646 1.646 0 0 1-.704.628 1.01 1.01 0 0 1-.333.038.592.592 0 0 1-.333-.112 1.877 1.877 0 0 1-.47-.592 7.266 7.266 0 0 1-.403-.755c-.22-.554-.591-1.92-.591-1.92l-.348-1.46-.37-1.44-.258-.962a11.015 11.015 0 0 0-1.629-3.693 6.204 6.204 0 0 0-3.027-2.29A5.06 5.06 0 0 0 16.42.43h-.727Z"/>
    </mask>
    <g mask="url(#ai)">
      <path fill="url(#aj)" d="M30.285-7.759 4.255 3.273 14.432 27.28 40.46 16.248 30.285-7.76Z"/>
    </g>
    <mask id="ak" width="24" height="20" x="10" y="0" maskUnits="userSpaceOnUse" style="mask-type:luminance">
      <path fill="#fff" d="M15.693.43a5.295 5.295 0 0 0-.662.075 6.255 6.255 0 0 0-4.064 2.816c.248.059.484.159.7.295.288.171.54.398.74.667.306.514.468 1.1.47 1.698.155 1.284.403 2.554.741 3.802.354-1.37.941-2.67 1.737-3.84.093-.138.218-.253.366-.332a.54.54 0 0 1 .258-.075.873.873 0 0 1 .446.112c.037 0 .037.038.075.038.119.113.228.236.328.366.196.36.37.731.521 1.112.296.812.554 1.844.554 1.844l.737 2.957a21.107 21.107 0 0 0 1 2.994c1.145 2.623 2.88 3.36 2.88 3.36a6.57 6.57 0 0 0 2.77.737 5.443 5.443 0 0 0 2.66-.554 7.166 7.166 0 0 0 2.347-1.877c.386-.527.731-1.082 1.032-1.661a20.004 20.004 0 0 0 1.591-4.29 23.94 23.94 0 0 0 .592-2.815c.075-.47.145-.939.183-1.408a3.18 3.18 0 0 0-.038-1.328c-.033-.075-.033-.15-.07-.226a2.623 2.623 0 0 0-1.145-1.29 2.191 2.191 0 0 0-1.258-.37 3.097 3.097 0 0 0-.629.074c.478.697.886 1.44 1.22 2.215.146.338.221.702.22 1.07-.008.34-.07.678-.182 1-.15.304-.337.589-.554.85a1.914 1.914 0 0 1-.85.553c-.32.12-.657.183-.999.188a2.286 2.286 0 0 1-1.29-.371l-.263.995c-.198.765-.47 1.508-.812 2.22a7.983 7.983 0 0 1-.662 1.253 1.646 1.646 0 0 1-.704.628 1.01 1.01 0 0 1-.333.038.592.592 0 0 1-.333-.112 1.877 1.877 0 0 1-.47-.592 7.266 7.266 0 0 1-.403-.755c-.22-.554-.591-1.92-.591-1.92l-.348-1.46-.37-1.44-.258-.962a11.015 11.015 0 0 0-1.629-3.693 6.204 6.204 0 0 0-3.027-2.29A5.06 5.06 0 0 0 16.42.43h-.727Z"/>
    </mask>
    <g mask="url(#ak)">
      <path fill="url(#al)" d="M32.445-4.892 6.615 1.5l5.666 22.896 25.83-6.392-5.666-22.896Z"/>
    </g>
    <mask id="am" width="24" height="20" x="10" y="0" maskUnits="userSpaceOnUse" style="mask-type:luminance">
      <path fill="#fff" d="M15.693.43a5.295 5.295 0 0 0-.662.075 6.255 6.255 0 0 0-4.064 2.816c.248.059.484.159.7.295.288.171.54.398.74.667.306.514.468 1.1.47 1.698.155 1.284.403 2.554.741 3.802.354-1.37.941-2.67 1.737-3.84.093-.138.218-.253.366-.332a.54.54 0 0 1 .258-.075.873.873 0 0 1 .446.112c.037 0 .037.038.075.038.119.113.228.236.328.366.196.36.37.731.521 1.112.296.812.554 1.844.554 1.844l.737 2.957a21.107 21.107 0 0 0 1 2.994c1.145 2.623 2.88 3.36 2.88 3.36a6.57 6.57 0 0 0 2.77.737 5.443 5.443 0 0 0 2.66-.554 7.166 7.166 0 0 0 2.347-1.877c.386-.527.731-1.082 1.032-1.661a20.004 20.004 0 0 0 1.591-4.29 23.94 23.94 0 0 0 .592-2.815c.075-.47.145-.939.183-1.408a3.18 3.18 0 0 0-.038-1.328c-.033-.075-.033-.15-.07-.226a2.623 2.623 0 0 0-1.145-1.29 2.191 2.191 0 0 0-1.258-.37 3.097 3.097 0 0 0-.629.074c.478.697.886 1.44 1.22 2.215.146.338.221.702.22 1.07-.008.34-.07.678-.182 1-.15.304-.337.589-.554.85a1.914 1.914 0 0 1-.85.553c-.32.12-.657.183-.999.188a2.286 2.286 0 0 1-1.29-.371l-.263.995c-.198.765-.47 1.508-.812 2.22a7.983 7.983 0 0 1-.662 1.253 1.646 1.646 0 0 1-.704.628 1.01 1.01 0 0 1-.333.038.592.592 0 0 1-.333-.112 1.877 1.877 0 0 1-.47-.592 7.266 7.266 0 0 1-.403-.755c-.22-.554-.591-1.92-.591-1.92l-.348-1.46-.37-1.44-.258-.962a11.015 11.015 0 0 0-1.629-3.693 6.204 6.204 0 0 0-3.027-2.29A5.06 5.06 0 0 0 16.42.43h-.727Z"/>
    </mask>
    <g mask="url(#am)">
      <path fill="url(#an)" d="M32.445-4.892 6.615 1.5l5.666 22.896 25.83-6.392-5.666-22.896Z"/>
    </g>
    <mask id="ao" width="24" height="20" x="10" y="0" maskUnits="userSpaceOnUse" style="mask-type:luminance">
      <path fill="#fff" d="M15.693.43a5.295 5.295 0 0 0-.662.075 6.255 6.255 0 0 0-4.064 2.816c.248.059.484.159.7.295.288.171.54.398.74.667.306.514.468 1.1.47 1.698.155 1.284.403 2.554.741 3.802.354-1.37.941-2.67 1.737-3.84.093-.138.218-.253.366-.332a.54.54 0 0 1 .258-.075.873.873 0 0 1 .446.112c.037 0 .037.038.075.038.119.113.228.236.328.366.196.36.37.731.521 1.112.296.812.554 1.844.554 1.844l.737 2.957a21.107 21.107 0 0 0 1 2.994c1.145 2.623 2.88 3.36 2.88 3.36a6.57 6.57 0 0 0 2.77.737 5.443 5.443 0 0 0 2.66-.554 7.166 7.166 0 0 0 2.347-1.877c.386-.527.731-1.082 1.032-1.661a20.004 20.004 0 0 0 1.591-4.29 23.94 23.94 0 0 0 .592-2.815c.075-.47.145-.939.183-1.408a3.18 3.18 0 0 0-.038-1.328c-.033-.075-.033-.15-.07-.226a2.623 2.623 0 0 0-1.145-1.29 2.191 2.191 0 0 0-1.258-.37 3.097 3.097 0 0 0-.629.074c.478.697.886 1.44 1.22 2.215.146.338.221.702.22 1.07-.008.34-.07.678-.182 1-.15.304-.337.589-.554.85a1.914 1.914 0 0 1-.85.553c-.32.12-.657.183-.999.188a2.286 2.286 0 0 1-1.29-.371l-.263.995c-.198.765-.47 1.508-.812 2.22a7.983 7.983 0 0 1-.662 1.253 1.646 1.646 0 0 1-.704.628 1.01 1.01 0 0 1-.333.038.592.592 0 0 1-.333-.112 1.877 1.877 0 0 1-.47-.592 7.266 7.266 0 0 1-.403-.755c-.22-.554-.591-1.92-.591-1.92l-.348-1.46-.37-1.44-.258-.962a11.015 11.015 0 0 0-1.629-3.693 6.204 6.204 0 0 0-3.027-2.29A5.06 5.06 0 0 0 16.42.43h-.727Z"/>
    </mask>
    <g mask="url(#ao)">
      <path fill="url(#ap)" d="M32.445-4.908 6.615 1.484l5.666 22.896 25.83-6.392-5.666-22.896Z"/>
    </g>
    <mask id="aq" width="24" height="20" x="10" y="0" maskUnits="userSpaceOnUse" style="mask-type:luminance">
      <path fill="#fff" d="M15.693.43a5.295 5.295 0 0 0-.662.075 6.255 6.255 0 0 0-4.064 2.816c.248.059.484.159.7.295.288.171.54.398.74.667.306.514.468 1.1.47 1.698.155 1.284.403 2.554.741 3.802.354-1.37.941-2.67 1.737-3.84.093-.138.218-.253.366-.332a.54.54 0 0 1 .258-.075.873.873 0 0 1 .446.112c.037 0 .037.038.075.038.119.113.228.236.328.366.196.36.37.731.521 1.112.296.812.554 1.844.554 1.844l.737 2.957a21.107 21.107 0 0 0 1 2.994c1.145 2.623 2.88 3.36 2.88 3.36a6.57 6.57 0 0 0 2.77.737 5.443 5.443 0 0 0 2.66-.554 7.166 7.166 0 0 0 2.347-1.877c.386-.527.731-1.082 1.032-1.661a20.004 20.004 0 0 0 1.591-4.29 23.94 23.94 0 0 0 .592-2.815c.075-.47.145-.939.183-1.408a3.18 3.18 0 0 0-.038-1.328c-.033-.075-.033-.15-.07-.226a2.623 2.623 0 0 0-1.145-1.29 2.191 2.191 0 0 0-1.258-.37 3.097 3.097 0 0 0-.629.074c.478.697.886 1.44 1.22 2.215.146.338.221.702.22 1.07-.008.34-.07.678-.182 1-.15.304-.337.589-.554.85a1.914 1.914 0 0 1-.85.553c-.32.12-.657.183-.999.188a2.286 2.286 0 0 1-1.29-.371l-.263.995c-.198.765-.47 1.508-.812 2.22a7.983 7.983 0 0 1-.662 1.253 1.646 1.646 0 0 1-.704.628 1.01 1.01 0 0 1-.333.038.592.592 0 0 1-.333-.112 1.877 1.877 0 0 1-.47-.592 7.266 7.266 0 0 1-.403-.755c-.22-.554-.591-1.92-.591-1.92l-.348-1.46-.37-1.44-.258-.962a11.015 11.015 0 0 0-1.629-3.693 6.204 6.204 0 0 0-3.027-2.29A5.06 5.06 0 0 0 16.42.43h-.727Z"/>
    </mask>
    <g mask="url(#aq)">
      <path fill="url(#ar)" d="M33.701-.714 10.031.47l.987 19.746 23.67-1.182L33.7-.714Z"/>
    </g>
    <mask id="as" width="24" height="20" x="10" y="0" maskUnits="userSpaceOnUse" style="mask-type:luminance">
      <path fill="#fff" d="M15.693.43a5.295 5.295 0 0 0-.662.075 6.255 6.255 0 0 0-4.064 2.816c.248.059.484.159.7.295.288.171.54.398.74.667.306.514.468 1.1.47 1.698.155 1.284.403 2.554.741 3.802.354-1.37.941-2.67 1.737-3.84.093-.138.218-.253.366-.332a.54.54 0 0 1 .258-.075.873.873 0 0 1 .446.112c.037 0 .037.038.075.038.119.113.228.236.328.366.196.36.37.731.521 1.112.296.812.554 1.844.554 1.844l.737 2.957a21.107 21.107 0 0 0 1 2.994c1.145 2.623 2.88 3.36 2.88 3.36a6.57 6.57 0 0 0 2.77.737 5.443 5.443 0 0 0 2.66-.554 7.166 7.166 0 0 0 2.347-1.877c.386-.527.731-1.082 1.032-1.661a20.004 20.004 0 0 0 1.591-4.29 23.94 23.94 0 0 0 .592-2.815c.075-.47.145-.939.183-1.408a3.18 3.18 0 0 0-.038-1.328c-.033-.075-.033-.15-.07-.226a2.623 2.623 0 0 0-1.145-1.29 2.191 2.191 0 0 0-1.258-.37 3.097 3.097 0 0 0-.629.074c.478.697.886 1.44 1.22 2.215.146.338.221.702.22 1.07-.008.34-.07.678-.182 1-.15.304-.337.589-.554.85a1.914 1.914 0 0 1-.85.553c-.32.12-.657.183-.999.188a2.286 2.286 0 0 1-1.29-.371l-.263.995c-.198.765-.47 1.508-.812 2.22a7.983 7.983 0 0 1-.662 1.253 1.646 1.646 0 0 1-.704.628 1.01 1.01 0 0 1-.333.038.592.592 0 0 1-.333-.112 1.877 1.877 0 0 1-.47-.592 7.266 7.266 0 0 1-.403-.755c-.22-.554-.591-1.92-.591-1.92l-.348-1.46-.37-1.44-.258-.962a11.015 11.015 0 0 0-1.629-3.693 6.204 6.204 0 0 0-3.027-2.29A5.06 5.06 0 0 0 16.42.43h-.727Z"/>
    </mask>
    <g mask="url(#as)">
      <path fill="url(#at)" d="M14.176-7.473 4.482 16.484l26.076 10.551 9.694-23.957-26.076-10.55Z"/>
    </g>
  </g>
  <defs>
    <radialGradient id="f" cx="0" cy="0" r="1" gradientTransform="matrix(2.6252 9.352 -7.1068 1.995 21.907 8.306)" gradientUnits="userSpaceOnUse">
      <stop stop-color="#227B60"/>
      <stop offset=".14" stop-color="#227B60"/>
      <stop offset=".58" stop-color="#227B60"/>
      <stop offset=".78" stop-color="#227B60"/>
      <stop offset="1" stop-color="#227B60"/>
    </radialGradient>
    <radialGradient id="h" cx="0" cy="0" r="1" gradientTransform="matrix(-.1319 6.5683 -4.9892 -.1002 23.18 7.817)" gradientUnits="userSpaceOnUse">
      <stop stop-color="#227B60"/>
      <stop offset=".25" stop-color="#227B60"/>
      <stop offset=".71" stop-color="#227B60"/>
      <stop offset=".92" stop-color="#227B60"/>
      <stop offset="1" stop-color="#227B60"/>
    </radialGradient>
    <radialGradient id="j" cx="0" cy="0" r="1" gradientTransform="matrix(.1496 6.1229 -4.3475 .1063 24.326 8.31)" gradientUnits="userSpaceOnUse">
      <stop stop-color="#227B60"/>
      <stop offset=".07" stop-color="#227B60"/>
      <stop offset=".34" stop-color="#227B60"/>
      <stop offset=".59" stop-color="#227B60"/>
      <stop offset=".79" stop-color="#227B60"/>
      <stop offset=".92" stop-color="#227B60"/>
      <stop offset="1" stop-color="#227B60"/>
    </radialGradient>
    <radialGradient id="l" cx="0" cy="0" r="1" gradientTransform="rotate(88.6 7.892 16.352) scale(4.9457 3.5109)" gradientUnits="userSpaceOnUse">
      <stop stop-color="#227B60"/>
      <stop offset=".36" stop-color="#227B60"/>
      <stop offset=".92" stop-color="#227B60"/>
      <stop offset="1" stop-color="#227B60"/>
    </radialGradient>
    <radialGradient id="n" cx="0" cy="0" r="1" gradientTransform="matrix(.0964 3.9435 -2.524 .0617 24.465 8.253)" gradientUnits="userSpaceOnUse">
      <stop stop-color="#20735A"/>
      <stop offset=".15" stop-color="#20745A"/>
      <stop offset=".38" stop-color="#21755C"/>
      <stop offset=".67" stop-color="#21785D"/>
      <stop offset="1" stop-color="#227B60"/>
    </radialGradient>
    <radialGradient id="p" cx="0" cy="0" r="1" gradientTransform="rotate(23.8 -5.53 61.093) scale(6.3434 4.7603)" gradientUnits="userSpaceOnUse">
      <stop stop-color="#227A61"/>
      <stop offset=".36" stop-color="#227A61"/>
      <stop offset=".72" stop-color="#227A61"/>
      <stop offset=".9" stop-color="#227A61"/>
      <stop offset="1" stop-color="#227A61"/>
    </radialGradient>
    <radialGradient id="r" cx="0" cy="0" r="1" gradientTransform="rotate(35.27 14.319 33.205) scale(8.4604 7.7374)" gradientUnits="userSpaceOnUse">
      <stop stop-color="#3CD9C3"/>
      <stop offset=".07" stop-color="#3BD7C1"/>
      <stop offset=".41" stop-color="#38CEB9"/>
      <stop offset=".65" stop-color="#36C8B4"/>
      <stop offset=".76" stop-color="#35C6B2"/>
      <stop offset="1" stop-color="#35C6B2"/>
    </radialGradient>
    <radialGradient id="t" cx="0" cy="0" r="1" gradientTransform="rotate(35.27 22653.61 -31133.66) scale(1503.36 1054.98)" gradientUnits="userSpaceOnUse">
      <stop stop-color="#3CD9C3"/>
      <stop offset=".07" stop-color="#3BD7C1"/>
      <stop offset=".41" stop-color="#38CEB9"/>
      <stop offset=".65" stop-color="#36C8B4"/>
      <stop offset=".76" stop-color="#35C6B2"/>
      <stop offset="1" stop-color="#35C6B2"/>
    </radialGradient>
    <radialGradient id="v" cx="0" cy="0" r="1" gradientTransform="matrix(-1.4202 7.3267 -9.0555 -1.7553 26.43 10.2)" gradientUnits="userSpaceOnUse">
      <stop stop-color="#237F66"/>
      <stop offset=".06" stop-color="#2C8C70"/>
      <stop offset=".21" stop-color="#3DA785"/>
      <stop offset=".35" stop-color="#4ABA93"/>
      <stop offset=".47" stop-color="#51C59C"/>
      <stop offset=".56" stop-color="#54C99F"/>
      <stop offset="1" stop-color="#54C99F"/>
    </radialGradient>
    <radialGradient id="x" cx="0" cy="0" r="1" gradientTransform="matrix(6.16 -7.5583 8.1647 6.6542 20.905 10.602)" gradientUnits="userSpaceOnUse">
      <stop stop-color="#167C8A"/>
      <stop offset=".04" stop-color="#167C8A"/>
      <stop offset=".33" stop-color="#177F8D"/>
      <stop offset=".54" stop-color="#17818F"/>
      <stop offset=".65" stop-color="#178290"/>
      <stop offset="1" stop-color="#178290"/>
    </radialGradient>
    <radialGradient id="z" cx="0" cy="0" r="1" gradientTransform="matrix(8.0975 -4.9933 3.9444 6.3966 20.998 11.796)" gradientUnits="userSpaceOnUse">
      <stop stop-color="#177D87"/>
      <stop offset=".05" stop-color="#177D87"/>
      <stop offset=".11" stop-color="#177E89"/>
      <stop offset=".21" stop-color="#177F8B"/>
      <stop offset=".32" stop-color="#17818D"/>
      <stop offset=".42" stop-color="#17818F"/>
      <stop offset=".51" stop-color="#178290"/>
      <stop offset=".6" stop-color="#178290"/>
      <stop offset="1" stop-color="#178290"/>
    </radialGradient>
    <radialGradient id="B" cx="0" cy="0" r="1" gradientTransform="matrix(-3.6845 -4.308 3.3922 -2.9013 18.557 11.289)" gradientUnits="userSpaceOnUse">
      <stop stop-color="#177F8A"/>
      <stop offset=".26" stop-color="#177F8A"/>
      <stop offset=".27" stop-color="#177F8A"/>
      <stop offset=".38" stop-color="#17808C"/>
      <stop offset=".5" stop-color="#17818D"/>
      <stop offset=".62" stop-color="#17818F"/>
      <stop offset=".74" stop-color="#17828F"/>
      <stop offset=".86" stop-color="#178290"/>
      <stop offset="1" stop-color="#178290"/>
    </radialGradient>
    <radialGradient id="D" cx="0" cy="0" r="1" gradientTransform="rotate(-173.1 9.208 5.818) scale(5.3164)" gradientUnits="userSpaceOnUse">
      <stop stop-color="#13656E"/>
      <stop offset=".11" stop-color="#13646E"/>
      <stop offset=".27" stop-color="#12646E"/>
      <stop offset=".42" stop-color="#12636E"/>
      <stop offset=".55" stop-color="#12636E"/>
      <stop offset=".66" stop-color="#12636E"/>
      <stop offset="1" stop-color="#12636E"/>
    </radialGradient>
    <radialGradient id="F" cx="0" cy="0" r="1" gradientTransform="matrix(-1.821 -3.2422 2.7217 -1.5286 18.09 13.184)" gradientUnits="userSpaceOnUse">
      <stop stop-color="#146A73"/>
      <stop offset=".13" stop-color="#146A73"/>
      <stop offset=".24" stop-color="#156F79"/>
      <stop offset=".45" stop-color="#167783"/>
      <stop offset=".65" stop-color="#167D8A"/>
      <stop offset=".82" stop-color="#17818E"/>
      <stop offset=".95" stop-color="#178290"/>
      <stop offset="1" stop-color="#178290"/>
    </radialGradient>
    <radialGradient id="H" cx="0" cy="0" r="1" gradientTransform="matrix(1.9555 -2.898 2.2957 1.549 16.923 12.929)" gradientUnits="userSpaceOnUse">
      <stop stop-color="#198E9C"/>
      <stop offset=".1" stop-color="#198E9C"/>
      <stop offset=".41" stop-color="#198E9C"/>
      <stop offset=".67" stop-color="#198E9C"/>
      <stop offset=".88" stop-color="#198E9C"/>
      <stop offset="1" stop-color="#198E9C"/>
    </radialGradient>
    <radialGradient id="V" cx="0" cy="0" r="1" gradientTransform="rotate(98.69 9.75 16.4) scale(11.6895 7.7152)" gradientUnits="userSpaceOnUse">
      <stop stop-color="#1A3D9C"/>
      <stop offset=".4" stop-color="#1A3D9C"/>
      <stop offset=".7" stop-color="#1A3D9C"/>
      <stop offset="1" stop-color="#1A3D9C"/>
    </radialGradient>
    <radialGradient id="X" cx="0" cy="0" r="1" gradientTransform="matrix(-217.277 1421.5207 -766.4743 -117.1542 7101.86 -18299.7)" gradientUnits="userSpaceOnUse">
      <stop stop-color="#1A3D9C"/>
      <stop offset=".4" stop-color="#1A3D9C"/>
      <stop offset=".7" stop-color="#1A3D9C"/>
      <stop offset="1" stop-color="#1A3D9C"/>
    </radialGradient>
    <radialGradient id="Z" cx="0" cy="0" r="1" gradientTransform="matrix(-256.4194 1693.3152 -699.5477 -105.9328 6230.72 -18568.9)" gradientUnits="userSpaceOnUse">
      <stop stop-color="#1A3D9C"/>
      <stop offset=".4" stop-color="#1A3D9C"/>
      <stop offset=".7" stop-color="#1A3D9C"/>
      <stop offset="1" stop-color="#1A3D9C"/>
    </radialGradient>
    <radialGradient id="ab" cx="0" cy="0" r="1" gradientTransform="matrix(1.2293 10.1435 -7.0776 .8577 26.01 8.723)" gradientUnits="userSpaceOnUse">
      <stop stop-color="#1A3D9C"/>
      <stop offset=".16" stop-color="#1A3D9C"/>
      <stop offset=".33" stop-color="#1A3D9C"/>
      <stop offset=".49" stop-color="#1A3D9C"/>
      <stop offset=".61" stop-color="#1A3D9C"/>
      <stop offset=".7" stop-color="#1A3D9C"/>
      <stop offset="1" stop-color="#1A3D9C"/>
    </radialGradient>
    <radialGradient id="ad" cx="0" cy="0" r="1" gradientTransform="matrix(2.6014 9.4702 -6.4386 1.7687 27.784 10.702)" gradientUnits="userSpaceOnUse">
      <stop stop-color="#18388F"/>
      <stop offset=".37" stop-color="#193B96"/>
      <stop offset=".7" stop-color="#1A3D9C"/>
      <stop offset="1" stop-color="#1A3D9C"/>
    </radialGradient>
    <radialGradient id="af" cx="0" cy="0" r="1" gradientTransform="matrix(1.2089 4.4008 -4.1828 1.149 26.82 12.316)" gradientUnits="userSpaceOnUse">
      <stop stop-color="#18388F"/>
      <stop offset=".09" stop-color="#183992"/>
      <stop offset=".22" stop-color="#193B96"/>
      <stop offset=".35" stop-color="#193C98"/>
      <stop offset=".47" stop-color="#1A3C9A"/>
      <stop offset=".59" stop-color="#1A3D9C"/>
      <stop offset=".7" stop-color="#1A3D9C"/>
      <stop offset="1" stop-color="#1A3D9C"/>
    </radialGradient>
    <radialGradient id="ah" cx="0" cy="0" r="1" gradientTransform="matrix(1.2089 4.4008 -4.1828 1.149 26.952 13.067)" gradientUnits="userSpaceOnUse">
      <stop stop-color="#1A3D9C"/>
      <stop offset=".01" stop-color="#1A3D9C"/>
      <stop offset=".24" stop-color="#1A3D9C"/>
      <stop offset=".44" stop-color="#1A3D9C"/>
      <stop offset=".6" stop-color="#1A3D9C"/>
      <stop offset=".7" stop-color="#1A3D9C"/>
      <stop offset="1" stop-color="#1A3D9C"/>
    </radialGradient>
    <radialGradient id="aj" cx="0" cy="0" r="1" gradientTransform="matrix(4.2522 10.0321 -6.6563 2.8213 15.27 11.238)" gradientUnits="userSpaceOnUse">
      <stop stop-color="#1A3D9C"/>
      <stop offset=".4" stop-color="#1A3D9C"/>
      <stop offset=".48" stop-color="#1A3D9C"/>
      <stop offset=".69" stop-color="#1A3D9C"/>
      <stop offset=".79" stop-color="#1A3D9C"/>
      <stop offset="1" stop-color="#1A3D9C"/>
    </radialGradient>
    <radialGradient id="al" cx="0" cy="0" r="1" gradientTransform="matrix(1.9416 7.8455 -5.1788 1.2816 14.694 8.58)" gradientUnits="userSpaceOnUse">
      <stop stop-color="#1A3D9C"/>
      <stop offset=".06" stop-color="#1A3D9C"/>
      <stop offset=".21" stop-color="#1A3D9C"/>
      <stop offset=".36" stop-color="#1A3D9C"/>
      <stop offset=".51" stop-color="#1A3D9C"/>
      <stop offset=".67" stop-color="#1A3D9C"/>
      <stop offset=".83" stop-color="#1A3D9C"/>
      <stop offset="1" stop-color="#1A3D9C"/>
    </radialGradient>
    <radialGradient id="an" cx="0" cy="0" r="1" gradientTransform="matrix(1.9416 7.8455 -5.1788 1.2816 14.694 8.58)" gradientUnits="userSpaceOnUse">
      <stop stop-color="#1B3E9E"/>
      <stop offset=".06" stop-color="#1B3E9E"/>
      <stop offset=".21" stop-color="#1B3E9D"/>
      <stop offset=".36" stop-color="#1A3D9D"/>
      <stop offset=".52" stop-color="#1A3D9C"/>
      <stop offset=".67" stop-color="#1A3D9C"/>
      <stop offset=".83" stop-color="#1A3D9C"/>
      <stop offset="1" stop-color="#1A3D9C"/>
    </radialGradient>
    <radialGradient id="ap" cx="0" cy="0" r="1" gradientTransform="matrix(1.4856 6.003 -3.9624 .9806 15.34 7.963)" gradientUnits="userSpaceOnUse">
      <stop stop-color="#183991"/>
      <stop offset=".03" stop-color="#183992"/>
      <stop offset=".18" stop-color="#193A95"/>
      <stop offset=".34" stop-color="#193B97"/>
      <stop offset=".5" stop-color="#1A3C99"/>
      <stop offset=".66" stop-color="#1A3D9B"/>
      <stop offset=".82" stop-color="#1A3D9C"/>
      <stop offset="1" stop-color="#1A3D9C"/>
    </radialGradient>
    <radialGradient id="ar" cx="0" cy="0" r="1" gradientTransform="matrix(.2438 4.8803 -4.2953 .2146 16.208 8.45)" gradientUnits="userSpaceOnUse">
      <stop stop-color="#2453D6"/>
      <stop offset=".04" stop-color="#2453D6"/>
      <stop offset=".2" stop-color="#2453D6"/>
      <stop offset=".52" stop-color="#2453D6"/>
      <stop offset=".73" stop-color="#2453D6"/>
      <stop offset="1" stop-color="#2453D6"/>
    </radialGradient>
    <linearGradient id="d" x1="9.239" x2="29.563" y1="13.896" y2="5.68" gradientUnits="userSpaceOnUse">
      <stop stop-color="#1CBBF3"/>
      <stop offset=".13" stop-color="#1CBBF3"/>
      <stop offset=".34" stop-color="#1F99A5"/>
      <stop offset=".45" stop-color="#209CA6"/>
      <stop offset=".51" stop-color="#24A4AA"/>
      <stop offset=".57" stop-color="#2BB3B0"/>
      <stop offset=".6" stop-color="#30BDB4"/>
      <stop offset=".79" stop-color="#38BA90"/>
      <stop offset="1" stop-color="#60F05A"/>
    </linearGradient>
    <linearGradient id="J" x1="10.405" x2="19.373" y1=".269" y2="8.568" gradientUnits="userSpaceOnUse">
      <stop stop-color="#2BF9FF"/>
      <stop offset=".13" stop-color="#2BF9FF"/>
      <stop offset=".27" stop-color="#29F9FF"/>
      <stop offset=".4" stop-color="#27FAFF"/>
      <stop offset=".49" stop-color="#26FAFF"/>
      <stop offset=".54" stop-color="#26FAFF"/>
      <stop offset="1" stop-color="#26FAFF"/>
    </linearGradient>
    <linearGradient id="L" x1="5.443" x2="15.918" y1="13.247" y2="10.276" gradientUnits="userSpaceOnUse">
      <stop stop-color="#26FAFF"/>
      <stop offset=".06" stop-color="#26FAFF"/>
      <stop offset=".24" stop-color="#26FAFF"/>
      <stop offset=".39" stop-color="#26FAFF"/>
      <stop offset=".5" stop-color="#26FAFF"/>
      <stop offset=".55" stop-color="#26FAFF"/>
      <stop offset="1" stop-color="#26FAFF"/>
    </linearGradient>
    <linearGradient id="N" x1="8.153" x2="19.807" y1="14.521" y2="10.367" gradientUnits="userSpaceOnUse">
      <stop stop-color="#21DEFF"/>
      <stop offset=".04" stop-color="#21DEFF"/>
      <stop offset=".17" stop-color="#21DEFF"/>
      <stop offset=".27" stop-color="#21DEFF"/>
      <stop offset=".34" stop-color="#21DEFF"/>
      <stop offset=".38" stop-color="#21DEFF"/>
      <stop offset="1" stop-color="#21DEFF"/>
    </linearGradient>
    <linearGradient id="P" x1="17.621" x2="24.223" y1="7.474" y2="18.243" gradientUnits="userSpaceOnUse">
      <stop stop-color="#21DEFF"/>
      <stop offset=".62" stop-color="#21DEFF"/>
      <stop offset=".66" stop-color="#21DEFF"/>
      <stop offset=".73" stop-color="#21DEFF"/>
      <stop offset=".83" stop-color="#21DEFF"/>
      <stop offset=".96" stop-color="#21DEFF"/>
      <stop offset="1" stop-color="#21DEFF"/>
    </linearGradient>
    <linearGradient id="R" x1="25.854" x2="24.833" y1="11.068" y2="6.064" gradientUnits="userSpaceOnUse">
      <stop stop-color="#44B044"/>
      <stop offset=".11" stop-color="#44B044"/>
      <stop offset=".27" stop-color="#44B044"/>
      <stop offset=".43" stop-color="#44B044"/>
      <stop offset=".58" stop-color="#44B044"/>
      <stop offset=".7" stop-color="#44B044"/>
      <stop offset=".8" stop-color="#44B044"/>
      <stop offset="1" stop-color="#44B044"/>
    </linearGradient>
    <linearGradient id="T" x1="12.709" x2="34.292" y1="5.671" y2="12.817" gradientUnits="userSpaceOnUse">
      <stop stop-color="#3066FB"/>
      <stop offset=".38" stop-color="#2F64F7"/>
      <stop offset=".74" stop-color="#2857D9"/>
      <stop offset="1" stop-color="#3C7EFF"/>
    </linearGradient>
    <linearGradient id="at" x1="27.548" x2="22.025" y1="-2.372" y2="11.275" gradientUnits="userSpaceOnUse">
      <stop stop-color="#3774FF"/>
      <stop offset=".05" stop-color="#3774FF"/>
      <stop offset=".16" stop-color="#3774FF"/>
      <stop offset=".32" stop-color="#3774FF"/>
      <stop offset=".43" stop-color="#3774FF"/>
      <stop offset="1" stop-color="#3774FF"/>
    </linearGradient>
  </defs>
</svg>